<svg width="81" height="72" viewBox="0 0 81 72" fill="none" xmlns="http://www.w3.org/2000/svg">
<path d="M80.1044 13.4216L75.5681 4.45598C75.4589 4.24166 75.2395 4.10638 74.9996 4.10638H70.4633C70.1115 4.10638 69.8267 4.39117 69.8267 4.74305V9.04505H66.3251C65.9732 9.04505 65.6884 9.32984 65.6884 9.68172L65.6878 28.7309H62.2117L51.6202 0.41326C51.527 0.164282 51.2894 0 51.0239 0L31.3345 0.000568455C31.069 0.000568455 30.8314 0.165418 30.7381 0.413829L20.1467 28.73H16.9276V9.68083C16.9276 9.32896 16.6428 9.04416 16.2909 9.04416H12.1525C11.8006 9.04416 11.5158 9.32896 11.5158 9.68083V19.5339H5.99212V13.0586C5.99212 12.7067 5.70733 12.4219 5.35545 12.4219H0.63667C0.284792 12.4219 0 12.7067 0 13.0586V33.9909C0 34.3427 0.284792 34.6275 0.63667 34.6275H5.35487C5.70675 34.6275 5.99154 34.3427 5.99154 33.9909L5.99211 27.5156H11.5158V57.3321C11.5158 57.684 11.8006 57.9688 12.1525 57.9688H14.2626L16.2954 62.475C15.3211 63.4874 14.7185 64.8591 14.7185 66.3711C14.7185 69.4743 17.2436 71.9994 20.3468 71.9994C23.45 71.9994 25.9745 69.4743 25.9745 66.3711C25.9745 64.859 25.372 63.4868 24.3982 62.475L26.431 57.9688H65.6907V66.5882H64.0631C63.7112 66.5882 63.4264 66.873 63.4264 67.2249V71.3633C63.4264 71.7152 63.7112 72 64.0631 72H72.7287C73.0805 72 73.3653 71.7152 73.3653 71.3633V67.2249C73.3653 66.873 73.0805 66.5882 72.7287 66.5882H71.1011L71.1005 34.6645H79.5365C79.8883 34.6645 80.1731 34.3797 80.1731 34.0278V13.7068C80.1743 13.6067 80.1504 13.5089 80.1055 13.4197L80.1044 13.4216ZM16.9263 35.0174H20.3467C21.8043 41.3648 26.4372 51.6 41.1771 51.6C55.9188 51.6 60.5523 41.3655 62.009 35.0174H65.6868V52.559H16.9259L16.9263 35.0174ZM22.7945 25.2826H59.5627L60.3568 27.4052H22.0009L22.7945 25.2826ZM60.8331 28.6785L61.4061 30.2099C61.3783 31.9971 60.6154 50.3258 41.1782 50.3258C21.7667 50.3258 20.9809 31.9969 20.9518 30.2084L21.5242 28.6781L60.8331 28.6785ZM65.6889 33.7441H62.273C62.6612 31.6135 62.6805 30.1531 62.6805 30.0974C62.6805 30.065 62.6686 30.0349 62.6635 30.0036H65.6882L65.6877 33.744L65.6889 33.7441ZM31.7758 1.27466H50.5834L59.0876 24.01H23.2725L31.7758 1.27466ZM19.6949 30.0041C19.6898 30.0354 19.6779 30.0661 19.6779 30.0979C19.6779 30.1531 19.6978 31.6146 20.0855 33.7446H16.9271L16.9266 30.0042L19.6949 30.0041ZM12.7888 10.319H15.6539V52.5604H12.7888V10.319ZM4.71842 33.3556H1.27298V13.6966H4.71784L4.71842 33.3556ZM5.99176 26.2436V20.8086H11.5154V26.2436H5.99176ZM20.3459 70.7276C17.9447 70.7276 15.9909 68.7744 15.9909 66.3726C15.9909 63.9715 17.9441 62.0182 20.3459 62.0182C22.747 62.0182 24.7003 63.9715 24.7003 66.3726C24.7003 68.7744 22.747 70.7276 20.3459 70.7276ZM23.3786 61.6403C22.5026 61.077 21.4635 60.7467 20.3459 60.7467C19.2283 60.7467 18.1898 61.0775 17.3131 61.6414L15.6578 57.9715H25.0334L23.3786 61.6403ZM12.7888 56.697V53.8319H65.6899V56.697H12.7888ZM72.0915 70.7276H64.6993V67.8625H72.0915V70.7276ZM66.9629 66.5892V10.3177H69.828V66.5892H66.9629ZM78.9005 33.3921H71.1012V5.3786H74.6091L78.9003 13.8588L78.9005 33.3921ZM20.3457 64.2433C19.1719 64.2433 18.2168 65.1983 18.2168 66.3722C18.2168 67.546 19.1718 68.5011 20.3457 68.5011C21.5196 68.5011 22.4746 67.5461 22.4746 66.3722C22.4752 65.1983 21.5202 64.2433 20.3457 64.2433ZM20.3457 67.2283C19.8739 67.2283 19.4902 66.8446 19.4902 66.3728C19.4902 65.901 19.8739 65.5173 20.3457 65.5173C20.8175 65.5173 21.2012 65.901 21.2012 66.3728C21.2018 66.8446 20.8175 67.2283 20.3457 67.2283Z" fill="#EC2333"/>
</svg>
