<svg width="249" height="224" viewBox="0 0 249 224" fill="none" xmlns="http://www.w3.org/2000/svg">
<path d="M215.5 182.3H48.6C40.8 182.3 34.5 176 34.5 168.2C34.5 160.4 40.8 154.1 48.6 154.1H99.9C104 154.1 107.4 150.7 107.4 146.6V51.4999C107.4 45.0999 112.6 39.8999 119 39.8999H215.5C221.9 39.8999 227.1 45.0999 227.1 51.4999V170.7C227 177.1 221.8 182.3 215.5 182.3ZM48.6 154.9C41.3 154.9 35.3 160.9 35.3 168.2C35.3 175.5 41.3 181.5 48.6 181.5H215.5C221.4 181.5 226.2 176.6 226.3 170.7V51.4999C226.3 45.4999 221.4 40.6999 215.5 40.6999H119C113 40.6999 108.2 45.5999 108.2 51.4999V146.6C108.2 151.2 104.5 154.9 99.9 154.9H48.6ZM213.8 169.1H47.8V167.6H99.9C111.4 167.6 120.7 158.3 120.7 146.8V53.1999H213.8V169.1ZM48.6 168.3H213V53.9999H121.4V146.7C121.4 158.6 111.7 168.3 99.8 168.3H48.6Z" fill="#BEBEBE"/>
<mask id="mask0_105_10908" style="mask-type:alpha" maskUnits="userSpaceOnUse" x="34" y="39" width="194" height="144">
<path d="M215.5 182.3H48.6C40.8 182.3 34.5 176 34.5 168.2C34.5 160.4 40.8 154.1 48.6 154.1H99.9C104 154.1 107.4 150.7 107.4 146.6V51.4999C107.4 45.0999 112.6 39.8999 119 39.8999H215.5C221.9 39.8999 227.1 45.0999 227.1 51.4999V170.7C227 177.1 221.8 182.3 215.5 182.3ZM48.6 168.3H213V53.9999H121.4V146.7C121.4 158.6 111.7 168.3 99.8 168.3H48.6Z" fill="#BEBEBE"/>
</mask>
<g mask="url(#mask0_105_10908)">
<path d="M293.899 39.8999H-25.3008V40.0999H293.899V39.8999Z" fill="#BEBEBE"/>
<path d="M293.899 43H-25.3008V43.2H293.899V43Z" fill="#BEBEBE"/>
<path d="M293.899 46.0999H-25.3008V46.2999H293.899V46.0999Z" fill="#BEBEBE"/>
<path d="M293.899 49.2H-25.3008V49.4H293.899V49.2Z" fill="#BEBEBE"/>
<path d="M293.899 52.2998H-25.3008V52.4998H293.899V52.2998Z" fill="#BEBEBE"/>
<path d="M293.899 55.3999H-25.3008V55.5999H293.899V55.3999Z" fill="#BEBEBE"/>
<path d="M293.899 58.3999H-25.3008V58.5999H293.899V58.3999Z" fill="#BEBEBE"/>
<path d="M293.899 61.5H-25.3008V61.7H293.899V61.5Z" fill="#BEBEBE"/>
<path d="M293.899 64.5999H-25.3008V64.7999H293.899V64.5999Z" fill="#BEBEBE"/>
<path d="M293.899 67.7H-25.3008V67.8999H293.899V67.7Z" fill="#BEBEBE"/>
<path d="M293.899 70.7998H-25.3008V70.9998H293.899V70.7998Z" fill="#BEBEBE"/>
<path d="M293.899 73.8999H-25.3008V74.0999H293.899V73.8999Z" fill="#BEBEBE"/>
<path d="M293.899 77H-25.3008V77.2H293.899V77Z" fill="#BEBEBE"/>
<path d="M293.899 80.0999H-25.3008V80.2999H293.899V80.0999Z" fill="#BEBEBE"/>
<path d="M293.899 83.2H-25.3008V83.3999H293.899V83.2Z" fill="#BEBEBE"/>
<path d="M293.899 86.2998H-25.3008V86.4998H293.899V86.2998Z" fill="#BEBEBE"/>
<path d="M293.899 89.2998H-25.3008V89.4998H293.899V89.2998Z" fill="#BEBEBE"/>
<path d="M293.899 92.3999H-25.3008V92.5999H293.899V92.3999Z" fill="#BEBEBE"/>
<path d="M293.899 95.5H-25.3008V95.7H293.899V95.5Z" fill="#BEBEBE"/>
<path d="M293.899 98.5999H-25.3008V98.7999H293.899V98.5999Z" fill="#BEBEBE"/>
<path d="M293.899 101.7H-25.3008V101.9H293.899V101.7Z" fill="#BEBEBE"/>
<path d="M293.899 104.8H-25.3008V105H293.899V104.8Z" fill="#BEBEBE"/>
<path d="M293.899 107.9H-25.3008V108.1H293.899V107.9Z" fill="#BEBEBE"/>
<path d="M293.899 111H-25.3008V111.2H293.899V111Z" fill="#BEBEBE"/>
<path d="M293.899 114.1H-25.3008V114.3H293.899V114.1Z" fill="#BEBEBE"/>
<path d="M293.899 117.1H-25.3008V117.3H293.899V117.1Z" fill="#BEBEBE"/>
<path d="M293.899 120.2H-25.3008V120.4H293.899V120.2Z" fill="#BEBEBE"/>
<path d="M293.899 123.3H-25.3008V123.5H293.899V123.3Z" fill="#BEBEBE"/>
<path d="M293.899 126.4H-25.3008V126.6H293.899V126.4Z" fill="#BEBEBE"/>
<path d="M293.899 129.5H-25.3008V129.7H293.899V129.5Z" fill="#BEBEBE"/>
<path d="M293.899 132.6H-25.3008V132.8H293.899V132.6Z" fill="#BEBEBE"/>
<path d="M293.899 135.7H-25.3008V135.9H293.899V135.7Z" fill="#BEBEBE"/>
<path d="M293.899 138.8H-25.3008V139H293.899V138.8Z" fill="#BEBEBE"/>
<path d="M293.899 141.9H-25.3008V142.1H293.899V141.9Z" fill="#BEBEBE"/>
<path d="M293.899 145H-25.3008V145.2H293.899V145Z" fill="#BEBEBE"/>
<path d="M293.899 148H-25.3008V148.2H293.899V148Z" fill="#BEBEBE"/>
<path d="M293.899 151.1H-25.3008V151.3H293.899V151.1Z" fill="#BEBEBE"/>
<path d="M293.899 154.2H-25.3008V154.4H293.899V154.2Z" fill="#BEBEBE"/>
<path d="M293.899 157.3H-25.3008V157.5H293.899V157.3Z" fill="#BEBEBE"/>
<path d="M293.899 160.4H-25.3008V160.6H293.899V160.4Z" fill="#BEBEBE"/>
<path d="M293.899 163.5H-25.3008V163.7H293.899V163.5Z" fill="#BEBEBE"/>
<path d="M293.899 166.6H-25.3008V166.8H293.899V166.6Z" fill="#BEBEBE"/>
<path d="M293.899 169.7H-25.3008V169.9H293.899V169.7Z" fill="#BEBEBE"/>
<path d="M293.899 172.8H-25.3008V173H293.899V172.8Z" fill="#BEBEBE"/>
<path d="M293.899 175.9H-25.3008V176.1H293.899V175.9Z" fill="#BEBEBE"/>
<path d="M293.899 178.9H-25.3008V179.1H293.899V178.9Z" fill="#BEBEBE"/>
<path d="M293.899 182H-25.3008V182.2H293.899V182Z" fill="#BEBEBE"/>
</g>
<path d="M226.801 185.1H226.301V222.8H226.801V185.1Z" fill="#BEBEBE"/>
<path d="M35.3008 178.3H34.8008V223.8H35.3008V178.3Z" fill="#BEBEBE"/>
<path d="M35.3008 118.2H34.8008V153.2H35.3008V118.2Z" fill="#BEBEBE"/>
<path d="M134.301 207V195.8H129.901C129.301 195.8 128.901 195.8 128.401 195.9C128.001 196 127.601 196.1 127.301 196.4C126.701 196.9 126.301 197.6 126.301 198.5C126.301 199.2 126.501 199.7 126.801 200.2C127.101 200.7 127.501 201 128.001 201.2C127.401 201.4 126.901 201.7 126.601 202.1C126.201 202.5 126.101 203.1 126.101 203.8C126.101 204.9 126.401 205.7 127.001 206.2C127.301 206.5 127.701 206.7 128.201 206.8C128.701 206.9 129.201 207 129.801 207H134.301ZM132.701 200.5H129.301C128.901 200.5 128.601 200.4 128.401 200.2C128.201 200 128.101 199.7 128.101 199.4V198.4C128.101 197.7 128.501 197.3 129.301 197.3H132.701V200.5ZM132.701 205.6H129.201C128.801 205.6 128.401 205.5 128.201 205.3C128.001 205.1 127.801 204.8 127.801 204.4V203.1C127.801 202.7 127.901 202.4 128.101 202.3C128.301 202.1 128.601 202 129.001 202H132.601V205.6H132.701Z" fill="#BEBEBE"/>
<path d="M210.699 215.7V210.1L226.299 212.9L210.699 215.7Z" fill="#BEBEBE"/>
<path d="M50.6 210.1V215.7L35 212.9L50.6 210.1Z" fill="#BEBEBE"/>
<path d="M211.399 212.6H48.1992V213.1H211.399V212.6Z" fill="#BEBEBE"/>
<path d="M65 120.7V109.5H68.6C70.3 109.5 71.5 110 72.3 110.9C73.1 111.8 73.4 113.2 73.4 115.1C73.4 117 73 118.4 72.3 119.3C71.5 120.2 70.3 120.7 68.6 120.7H65ZM66.5 119.3H68.6C69.7 119.3 70.4 119.1 70.9 118.6C71.4 118.2 71.6 117.5 71.6 116.7V113.4C71.6 112.6 71.4 111.9 70.9 111.5C70.4 111.1 69.6 110.8 68.6 110.8H66.5V119.3Z" fill="#BEBEBE"/>
<path d="M91.9004 129.4V123.8L107.4 126.6L91.9004 129.4Z" fill="#BEBEBE"/>
<path d="M50.6 123.8V129.4L35 126.6L50.6 123.8Z" fill="#BEBEBE"/>
<path d="M94.6008 126.4H45.3008V126.9H94.6008V126.4Z" fill="#BEBEBE"/>
<path d="M107.6 8.3999H107.1V36.2999H107.6V8.3999Z" fill="#BEBEBE"/>
<path d="M226.801 8.3999H226.301V36.2999H226.801V8.3999Z" fill="#BEBEBE"/>
<path d="M161.801 11.2L165.701 0H167.401L171.301 11.2H169.701L168.801 8.4H164.401L163.501 11.2H161.801ZM164.801 7.2H168.401L166.701 1.8H166.601L164.801 7.2Z" fill="#BEBEBE"/>
<path d="M210.699 19.8998V14.2998L226.199 17.0998L210.699 19.8998Z" fill="#BEBEBE"/>
<path d="M123.401 14.2998V19.8998L107.801 17.0998L123.401 14.2998Z" fill="#BEBEBE"/>
<path d="M211.3 16.8999H122.6V17.3999H211.3V16.8999Z" fill="#BEBEBE"/>
<path d="M7.19922 98.8999C7.19922 97.9999 7.29922 97.1999 7.49922 96.3999C7.69922 95.5999 7.99922 94.9999 8.39922 94.4999C8.79922 93.9999 9.29922 93.5999 9.79922 93.2999C10.3992 92.9999 11.0992 92.8999 11.7992 92.8999C12.2992 92.8999 12.7992 92.9999 13.2992 93.0999C13.7992 93.2999 14.1992 93.4999 14.4992 93.7999C14.8992 94.0999 15.0992 94.4999 15.2992 94.8999C15.4992 95.2999 15.5992 95.7999 15.6992 96.2999H14.0992C13.9992 95.5999 13.7992 95.0999 13.2992 94.7999C12.8992 94.3999 12.2992 94.2999 11.4992 94.2999C11.0992 94.2999 10.6992 94.3999 10.3992 94.4999C10.0992 94.5999 9.79922 94.7999 9.49922 95.0999C9.19922 95.3999 9.09922 95.5999 8.89922 95.9999C8.79922 96.2999 8.69922 96.6999 8.69922 97.0999V100.5C8.69922 100.9 8.79922 101.3 8.89922 101.6C8.99922 101.9 9.29922 102.2 9.49922 102.5C9.79922 102.7 10.0992 102.9 10.3992 103.1C10.6992 103.2 11.0992 103.3 11.4992 103.3C12.1992 103.3 12.7992 103.1 13.2992 102.8C13.7992 102.5 13.9992 101.9 14.0992 101.2H15.9992C15.9992 101.7 15.7992 102.2 15.5992 102.6C15.3992 103 15.0992 103.4 14.6992 103.7C14.2992 104 13.8992 104.2 13.3992 104.4C12.8992 104.6 12.3992 104.7 11.7992 104.7C11.0992 104.7 10.3992 104.6 9.79922 104.3C9.19922 104 8.79922 103.6 8.39922 103.1C7.99922 102.6 7.69922 102 7.49922 101.3C7.29922 100.6 7.19922 99.7999 7.19922 98.8999Z" fill="#BEBEBE"/>
<path d="M103 40.5H0V41H103V40.5Z" fill="#BEBEBE"/>
<path d="M30.0008 154.4H1.80078V154.9H30.0008V154.4Z" fill="#BEBEBE"/>
<path d="M15.6 56.3999H10L12.8 40.8999L15.6 56.3999Z" fill="#BEBEBE"/>
<path d="M13 56.3999H12.5V85.0999H13V56.3999Z" fill="#BEBEBE"/>
<path d="M10 138.6H15.6L12.8 154.2L10 138.6Z" fill="#BEBEBE"/>
<path d="M13 112.8H12.5V139.8H13V112.8Z" fill="#BEBEBE"/>
<path d="M278.599 40.2H231.699V40.7H278.599V40.2Z" fill="#BEBEBE"/>
<path d="M278.599 181.6H231.699V182.1H278.599V181.6Z" fill="#BEBEBE"/>
<path d="M148.301 111.3V109.9H156.501V111.3H153.201V121.1H151.601V111.3H148.301Z" fill="#BEBEBE"/>
<path d="M136.7 123.8V129.4L121.1 126.6L136.7 123.8Z" fill="#BEBEBE"/>
<path d="M165.801 126.4H136.301V126.9H165.801V126.4Z" fill="#BEBEBE"/>
<path d="M121.101 126.2H107.801V127H121.101V126.2Z" fill="#BEBEBE"/>
</svg>
