<svg width="71" height="80" viewBox="0 0 71 80" fill="none" xmlns="http://www.w3.org/2000/svg">
<path d="M59.8827 43.1043C60.3965 43.1043 60.8115 43.5193 60.8115 44.0331V45.7318C60.8115 46.2456 60.3965 46.6606 59.8827 46.6606C59.3689 46.6606 58.9539 46.2456 58.9539 45.7318V44.0331C58.9539 43.5207 59.3691 43.1043 59.8827 43.1043Z" fill="white" stroke="#094367" stroke-width="0.4"/>
<path d="M51.0312 43.1043C51.5449 43.1043 51.96 43.5193 51.96 44.0331V45.7318C51.96 46.2456 51.5449 46.6606 51.0312 46.6606C50.5174 46.6606 50.1023 46.2456 50.1023 45.7318V44.0331C50.1023 43.5207 50.5176 43.1043 51.0312 43.1043Z" fill="white" stroke="#094367" stroke-width="0.4"/>
<path d="M42.1796 43.1043C42.6934 43.1043 43.1084 43.5193 43.1084 44.0331V45.7318C43.1084 46.2456 42.6934 46.6606 42.1796 46.6606C41.6658 46.6606 41.2508 46.2456 41.2508 45.7318V44.0331C41.2508 43.5207 41.666 43.1043 42.1796 43.1043Z" fill="white" stroke="#094367" stroke-width="0.4"/>
<path d="M59.8827 50.055C60.3965 50.055 60.8115 50.47 60.8115 50.9838V52.6825C60.8115 53.1963 60.3965 53.6113 59.8827 53.6113C59.3689 53.6113 58.9539 53.1963 58.9539 52.6825V50.9838C58.9539 50.47 59.3689 50.055 59.8827 50.055Z" fill="white" stroke="#094367" stroke-width="0.4"/>
<path d="M51.0312 50.055C51.5449 50.055 51.96 50.47 51.96 50.9838V52.6825C51.96 53.1963 51.5449 53.6113 51.0312 53.6113C50.5174 53.6113 50.1023 53.1963 50.1023 52.6825V50.9838C50.1023 50.47 50.5174 50.055 51.0312 50.055Z" fill="white" stroke="#094367" stroke-width="0.4"/>
<path d="M42.1796 50.055C42.6934 50.055 43.1084 50.47 43.1084 50.9838V52.6825C43.1084 53.1963 42.6934 53.6113 42.1796 53.6113C41.6658 53.6113 41.2508 53.1963 41.2508 52.6825V50.9838C41.2508 50.47 41.6658 50.055 42.1796 50.055Z" fill="white" stroke="#094367" stroke-width="0.4"/>
<path d="M59.8827 57.0032C60.3965 57.0032 60.8115 57.4183 60.8115 57.932V59.6308C60.8115 60.1445 60.3965 60.5596 59.8827 60.5596C59.3689 60.5596 58.9539 60.1445 58.9539 59.6308V57.932C58.9539 57.4183 59.3689 57.0032 59.8827 57.0032Z" fill="white" stroke="#094367" stroke-width="0.4"/>
<path d="M51.0312 57.0032C51.5449 57.0032 51.96 57.4183 51.96 57.932V59.6308C51.96 60.1445 51.5449 60.5596 51.0312 60.5596C50.5174 60.5596 50.1023 60.1445 50.1023 59.6308V57.932C50.1023 57.4183 50.5174 57.0032 51.0312 57.0032Z" fill="white" stroke="#094367" stroke-width="0.4"/>
<path d="M42.1796 57.0032C42.6934 57.0032 43.1084 57.4183 43.1084 57.932V59.6308C43.1084 60.1445 42.6934 60.5596 42.1796 60.5596C41.6658 60.5596 41.2508 60.1445 41.2508 59.6308V57.932C41.2508 57.4183 41.6658 57.0032 42.1796 57.0032Z" fill="white" stroke="#094367" stroke-width="0.4"/>
<path d="M59.8827 63.9534C60.3965 63.9534 60.8115 64.3684 60.8115 64.8822V66.5809C60.8115 67.0947 60.3965 67.5098 59.8827 67.5098C59.3689 67.5098 58.9539 67.0947 58.9539 66.5809V64.8822C58.9539 64.3684 59.3689 63.9534 59.8827 63.9534Z" fill="white" stroke="#094367" stroke-width="0.4"/>
<path d="M51.0312 63.9534C51.5449 63.9534 51.96 64.3685 51.96 64.8822V66.5809C51.96 67.0947 51.5449 67.5098 51.0312 67.5098C50.5174 67.5098 50.1023 67.0947 50.1023 66.5809V64.8822C50.1023 64.3684 50.5174 63.9534 51.0312 63.9534Z" fill="white" stroke="#094367" stroke-width="0.4"/>
<path d="M42.1796 63.9534C42.6934 63.9534 43.1084 64.3684 43.1084 64.8822V66.5809C43.1084 67.0947 42.6934 67.5098 42.1796 67.5098C41.6658 67.5098 41.2508 67.0947 41.2508 66.5809V64.8822C41.2508 64.3685 41.6658 63.9534 42.1796 63.9534Z" fill="white" stroke="#094367" stroke-width="0.4"/>
<path d="M59.8827 70.9017C60.3965 70.9017 60.8115 71.3167 60.8115 71.8305V73.5292C60.8115 74.043 60.3965 74.458 59.8827 74.458C59.3689 74.458 58.9539 74.043 58.9539 73.5292V71.8305C58.9539 71.3174 59.369 70.9017 59.8827 70.9017Z" fill="white" stroke="#094367" stroke-width="0.4"/>
<path d="M51.0312 70.9017C51.5449 70.9017 51.96 71.3167 51.96 71.8305V73.5292C51.96 74.043 51.5449 74.458 51.0312 74.458C50.5174 74.458 50.1023 74.043 50.1023 73.5292V71.8305C50.1023 71.3174 50.5175 70.9017 51.0312 70.9017Z" fill="white" stroke="#094367" stroke-width="0.4"/>
<path d="M42.1796 70.9017C42.6934 70.9017 43.1084 71.3167 43.1084 71.8305V73.5292C43.1084 74.043 42.6934 74.458 42.1796 74.458C41.6658 74.458 41.2508 74.043 41.2508 73.5292V71.8305C41.2508 71.3174 41.6659 70.9017 42.1796 70.9017Z" fill="white" stroke="#094367" stroke-width="0.4"/>
<path d="M34.1807 44.0331V45.7318C34.1807 46.2456 33.7656 46.6606 33.2519 46.6606C32.7381 46.6606 32.323 46.2456 32.323 45.7318V44.0331C32.323 43.5193 32.7381 43.1043 33.2519 43.1043C33.7655 43.1043 34.1807 43.5207 34.1807 44.0331Z" fill="white" stroke="#094367" stroke-width="0.4"/>
<path d="M24.4022 46.6582C23.8885 46.6582 23.4734 46.2432 23.4734 45.7294V44.0307C23.4734 43.5169 23.8885 43.1019 24.4022 43.1019C24.916 43.1019 25.3311 43.5169 25.3311 44.0307V45.7294C25.3311 46.2432 24.916 46.6582 24.4022 46.6582Z" fill="white" stroke="#094367" stroke-width="0.4"/>
<path d="M33.2558 50.055C33.7695 50.055 34.1846 50.47 34.1846 50.9838V52.6825C34.1846 53.1963 33.7695 53.6113 33.2558 53.6113C32.742 53.6113 32.327 53.1963 32.327 52.6825V50.9838C32.327 50.47 32.742 50.055 33.2558 50.055Z" fill="white" stroke="#094367" stroke-width="0.4"/>
<path d="M24.4022 53.6108C23.8885 53.6108 23.4734 53.1958 23.4734 52.682V50.9833C23.4734 50.4695 23.8885 50.0545 24.4022 50.0545C24.916 50.0545 25.3311 50.4695 25.3311 50.9833V52.682C25.3311 53.1944 24.9158 53.6108 24.4022 53.6108Z" fill="white" stroke="#094367" stroke-width="0.4"/>
<path d="M33.2558 57.0032C33.7695 57.0032 34.1846 57.4183 34.1846 57.932V59.6308C34.1846 60.1445 33.7695 60.5596 33.2558 60.5596C32.742 60.5596 32.327 60.1445 32.327 59.6308V57.932C32.327 57.4183 32.742 57.0032 33.2558 57.0032Z" fill="white" stroke="#094367" stroke-width="0.4"/>
<path d="M24.4022 60.5586C23.8885 60.5586 23.4734 60.1436 23.4734 59.6298V57.9311C23.4734 57.4173 23.8885 57.0022 24.4022 57.0022C24.916 57.0022 25.3311 57.4173 25.3311 57.9311V59.6298C25.3311 60.1429 24.9159 60.5586 24.4022 60.5586Z" fill="white" stroke="#094367" stroke-width="0.4"/>
<path d="M33.2558 63.9534C33.7695 63.9534 34.1846 64.3684 34.1846 64.8822V66.5809C34.1846 67.0947 33.7695 67.5098 33.2558 67.5098C32.742 67.5098 32.327 67.0947 32.327 66.5809V64.8822C32.327 64.3684 32.742 63.9534 33.2558 63.9534Z" fill="white" stroke="#094367" stroke-width="0.4"/>
<path d="M24.4022 67.5093C23.8885 67.5093 23.4734 67.0942 23.4734 66.5805V64.8817C23.4734 64.368 23.8885 63.9529 24.4022 63.9529C24.916 63.9529 25.3311 64.368 25.3311 64.8817V66.5805C25.3311 67.0942 24.916 67.5093 24.4022 67.5093Z" fill="white" stroke="#094367" stroke-width="0.4"/>
<path d="M33.2558 70.9017C33.7695 70.9017 34.1846 71.3167 34.1846 71.8305V73.5292C34.1846 74.043 33.7695 74.458 33.2558 74.458C32.742 74.458 32.327 74.043 32.327 73.5292V71.8305C32.327 71.3174 32.7421 70.9017 33.2558 70.9017Z" fill="white" stroke="#094367" stroke-width="0.4"/>
<path d="M24.4022 74.4575C23.8885 74.4575 23.4734 74.0425 23.4734 73.5287V71.83C23.4734 71.3162 23.8885 70.9012 24.4022 70.9012C24.916 70.9012 25.3311 71.3162 25.3311 71.83V73.5287C25.3311 74.0425 24.916 74.4575 24.4022 74.4575Z" fill="white" stroke="#094367" stroke-width="0.4"/>
<path d="M0.201291 78.0278V78.0773C0.201291 78.5911 0.616324 79.0061 1.1301 79.0061H69.8712C70.385 79.0061 70.8 78.5911 70.8 78.0773C70.8 77.5636 70.385 77.1485 69.8712 77.1485H67.6986H67.4986V76.9485L67.4979 30.6906C67.4979 30.3572 67.3185 30.0488 67.0282 29.8836L67.0275 29.8832C66.7379 29.7168 66.3805 29.7226 66.0942 29.8927L51.9851 38.3042L51.6827 38.4845V38.1324V30.6897C51.6827 30.3563 51.5034 30.0479 51.2131 29.8826L51.2124 29.8822C50.9229 29.7159 50.5656 29.7217 50.2794 29.8916L0.201291 78.0278ZM0.201291 78.0278C0.226931 77.5376 0.631135 77.1485 1.12802 77.1485H5.09386H5.28582L5.29369 76.9567L7.53475 22.3137L7.53476 22.3133C7.55417 21.8159 7.96447 21.4231 8.46215 21.4231H16.7779C17.2755 21.4231 17.6859 21.8166 17.7053 22.3133L17.7053 22.3137L18.4098 39.4339L18.4239 39.7761L18.715 39.5957L34.3609 29.9002L34.3611 29.9C34.6482 29.7216 35.0066 29.7147 35.3012 29.8781C35.5968 30.0428 35.7787 30.353 35.7787 30.6897L35.7779 37.8175H35.7777L35.7781 37.8259L35.793 38.1848L35.807 38.5201L36.0953 38.3482L50.2791 29.8918L0.201291 78.0278ZM8.46215 21.2231C7.8576 21.2231 7.35853 21.7002 7.33491 22.3055H17.9051C17.8815 21.701 17.3825 21.2231 16.7779 21.2231H8.46215ZM18.6118 41.844L18.5124 41.9056L18.5172 42.0223L19.9549 76.9575L19.9628 77.1493H20.1547H65.4414H65.6414V76.9493V32.6783V32.3262L65.339 32.5065L51.2296 40.9182L51.2296 40.9182C50.9437 41.0887 50.5864 41.0941 50.2966 40.9276L50.2959 40.9272C50.0056 40.762 49.8262 40.4536 49.8262 40.1202V32.6774V32.3253L49.5238 32.5056L35.4153 40.9173L35.4148 40.9176C35.1348 41.0857 34.7854 41.0928 34.499 40.9364L34.4985 40.9361C34.2111 40.7801 34.0271 40.4843 34.0141 40.1563L33.9238 37.8593V32.7175V32.3584L33.6184 32.5475L18.6118 41.844ZM7.15356 76.9406L7.14502 77.1488H7.3534H17.8953H18.1037L18.0951 76.9406L15.8966 23.4724L15.8887 23.2806H15.6968H9.5473H9.35534L9.34747 23.4724L7.15356 76.9406Z" fill="white" stroke="#094367" stroke-width="0.4"/>
<path d="M12.6223 11.116C14.6042 11.116 16.2172 12.7283 16.2172 14.7102C16.2172 16.6928 14.6042 18.3051 12.6223 18.3051C10.6413 18.3051 9.02813 16.6921 9.02813 14.7102C9.02813 12.7291 10.6405 11.116 12.6223 11.116ZM12.6223 16.4483C13.5813 16.4483 14.3604 15.6692 14.3604 14.7102C14.3604 13.7519 13.5813 12.9728 12.6223 12.9728C11.6641 12.9728 10.885 13.7519 10.885 14.7102C10.885 15.6691 11.664 16.4483 12.6223 16.4483Z" fill="white" stroke="#094367" stroke-width="0.4"/>
<path d="M21.2044 0.2C24.2827 0.2 26.7877 2.70497 26.7877 5.7833C26.7877 8.86163 24.2827 11.3666 21.2044 11.3666C18.1269 11.3666 15.6219 8.86165 15.6219 5.7833C15.6219 2.70495 18.1269 0.2 21.2044 0.2ZM21.2044 9.50983C23.2591 9.50983 24.9309 7.83806 24.9309 5.7833C24.9309 3.72772 23.2591 2.05678 21.2044 2.05678C19.1488 2.05678 17.4786 3.72863 17.4786 5.7833C17.4786 7.838 19.1495 9.50983 21.2044 9.50983Z" fill="white" stroke="#094367" stroke-width="0.4"/>
</svg>
