<svg width="21" height="20" viewBox="0 0 21 20" fill="none" xmlns="http://www.w3.org/2000/svg">
<path fill-rule="evenodd" clip-rule="evenodd" d="M5.71484 0H15.7148C18.4763 0 20.7148 2.23858 20.7148 5V15C20.7148 17.7614 18.4763 20 15.7148 20H5.71484C2.95342 20 0.714844 17.7614 0.714844 15V5C0.714844 2.23858 2.95342 0 5.71484 0ZM14.3094 11.7993C14.6969 11.0525 14.839 10.2025 14.7156 9.3703C14.5897 8.52138 14.1942 7.73545 13.5873 7.12861C12.9805 6.52176 12.1945 6.12619 11.3456 6.0003C10.5134 5.87689 9.6634 6.01904 8.9166 6.40654C8.1698 6.79404 7.5642 7.40716 7.18594 8.15868C6.80768 8.9102 6.67602 9.76185 6.80968 10.5925C6.94335 11.4232 7.33553 12.1905 7.93046 12.7855C8.52538 13.3804 9.29274 13.7726 10.1234 13.9062C10.9541 14.0399 11.8057 13.9082 12.5572 13.53C13.3088 13.1517 13.9219 12.5461 14.3094 11.7993Z" fill="white"/>
</svg>
