<svg width="24" height="22" viewBox="0 0 24 22" fill="none" xmlns="http://www.w3.org/2000/svg">
<path d="M16.9254 6.94873C18.7678 6.94873 20.5347 7.68063 21.8375 8.98342C23.1403 10.2862 23.8722 12.0532 23.8722 13.8956V22.0002H19.241V13.8956C19.241 13.2814 18.997 12.6925 18.5627 12.2582C18.1285 11.8239 17.5395 11.58 16.9254 11.58C16.3112 11.58 15.7222 11.8239 15.288 12.2582C14.8537 12.6925 14.6097 13.2814 14.6097 13.8956V22.0002H9.97852V13.8956C9.97852 12.0532 10.7104 10.2862 12.0132 8.98342C13.316 7.68063 15.0829 6.94873 16.9254 6.94873Z" fill="white"/>
<path d="M5.34608 8.10498H0.714844V21.9987H5.34608V8.10498Z" fill="white"/>
<path d="M3.03046 4.63123C4.30934 4.63123 5.34608 3.5945 5.34608 2.31562C5.34608 1.03674 4.30934 0 3.03046 0C1.75158 0 0.714844 1.03674 0.714844 2.31562C0.714844 3.5945 1.75158 4.63123 3.03046 4.63123Z" fill="white"/>
</svg>
