<svg width="138" height="23" viewBox="0 0 138 23" fill="none" xmlns="http://www.w3.org/2000/svg">
<path d="M1.81125 22V0.725H7.33125C10.1871 0.725 12.1421 1.34792 13.1963 2.59375C14.3463 3.99292 14.9213 5.63167 14.9213 7.51C14.9213 8.73667 14.7104 9.81 14.2888 10.73C13.7138 11.995 12.88 12.9246 11.7875 13.5187L15.8125 22H10.925L6.23875 11.19C6.73708 11.19 7.10125 11.1804 7.33125 11.1612C8.30875 11.0846 9.0275 10.8162 9.4875 10.3562C10.12 9.74292 10.4363 8.92833 10.4363 7.9125C10.4363 6.74333 10.1008 5.88083 9.43 5.325C8.98917 4.94167 8.24167 4.75 7.1875 4.75H6.18125V22H1.81125ZM17.9878 0.725H24.0253C26.1145 0.725 27.782 1.31917 29.0278 2.5075C30.3312 3.75333 30.9828 5.46875 30.9828 7.65375C30.9828 9.83875 30.3312 11.5542 29.0278 12.8C27.782 13.9883 26.1145 14.5825 24.0253 14.5825H22.3578V22H17.9878V0.725ZM22.3578 4.75V10.5575H23.9678C24.8495 10.5575 25.482 10.3275 25.8653 9.8675C26.287 9.42667 26.4978 8.68875 26.4978 7.65375C26.4978 6.59958 26.287 5.85208 25.8653 5.41125C25.482 4.97042 24.8495 4.75 23.9678 4.75H22.3578ZM43.4509 17.9462L42.4159 22H37.9884L43.7959 0.725H47.8209L53.8584 22H49.4309L48.3384 17.9462H43.4509ZM47.2172 13.9212L45.8659 6.96375L44.5147 13.9212H47.2172ZM55.9188 22V0.725H60.2888V17.975H65.8663V22H55.9188ZM68.6934 22V0.725H73.0634V17.975H78.6409V22H68.6934ZM112.731 22V13.49L107.613 0.725H112.098L114.945 9.4075L117.733 0.725H122.218L117.101 13.49V22H112.731ZM122.519 15.3012H126.889C126.928 16.4321 127.148 17.2562 127.55 17.7738C127.972 18.2912 128.653 18.55 129.592 18.55C130.378 18.55 130.981 18.3296 131.403 17.8887C131.844 17.4287 132.064 16.8058 132.064 16.02C132.064 15.7133 131.997 15.4354 131.863 15.1862C131.729 14.9179 131.575 14.6975 131.403 14.525C131.23 14.3525 130.962 14.18 130.598 14.0075C130.234 13.8158 129.927 13.6721 129.678 13.5762C129.448 13.4804 129.084 13.3462 128.585 13.1737C128.087 12.9821 127.713 12.8383 127.464 12.7425C126.793 12.4742 126.218 12.2058 125.739 11.9375C125.279 11.65 124.81 11.2858 124.33 10.845C123.851 10.4042 123.487 9.85792 123.238 9.20625C122.989 8.53542 122.864 7.76875 122.864 6.90625C122.864 4.87458 123.449 3.26458 124.618 2.07625C125.787 0.887915 127.378 0.293748 129.39 0.293748C131.365 0.293748 132.908 0.792082 134.019 1.78875C135.131 2.76625 135.84 4.29958 136.147 6.38875H131.892C131.853 5.60292 131.633 4.99917 131.23 4.5775C130.828 4.13667 130.272 3.91625 129.563 3.91625C128.892 3.91625 128.355 4.13667 127.953 4.5775C127.55 5.01833 127.349 5.57417 127.349 6.245C127.349 6.62833 127.416 6.96375 127.55 7.25125C127.704 7.53875 127.963 7.7975 128.327 8.0275C128.71 8.2575 129.036 8.43958 129.304 8.57375C129.573 8.68875 130.013 8.85167 130.627 9.0625C131.24 9.27333 131.681 9.43625 131.949 9.55125C132.62 9.81958 133.185 10.1071 133.645 10.4137C134.125 10.7012 134.604 11.0846 135.083 11.5637C135.562 12.0429 135.926 12.6562 136.175 13.4037C136.425 14.1321 136.549 14.985 136.549 15.9625C136.549 17.9175 135.888 19.4796 134.565 20.6487C133.262 21.8179 131.575 22.4025 129.505 22.4025C124.848 22.4025 122.519 20.0354 122.519 15.3012Z" fill="#222222"/>
<path d="M104.417 12.4839V8.67794L102.056 8.28812C101.874 7.66053 101.622 7.06289 101.306 6.50465L102.696 4.58398L99.9638 1.89255L98.0134 3.26216C97.4471 2.95045 96.8403 2.70183 96.203 2.52367L95.8073 0.196594H91.9438L91.5481 2.52367C90.911 2.70184 90.3046 2.95027 89.7382 3.26199L87.7875 1.89237L85.0555 4.58362L86.4458 6.50429C86.1297 7.06271 85.8771 7.66013 85.6957 8.28812L83.334 8.67794V12.4839L85.6957 12.8737C85.8769 13.5015 86.1293 14.0989 86.4454 14.6572L85.0552 16.5778L87.7875 19.2693L89.7377 17.8997C90.3042 18.2114 90.911 18.46 91.5481 18.6382L91.9438 20.9652H95.8078L96.2035 18.6382C96.8406 18.4602 97.447 18.2116 98.0135 17.9002L99.9639 19.2698L102.696 16.5784L101.306 14.6579C101.623 14.0993 101.875 13.5021 102.056 12.8741L104.417 12.4839ZM93.8758 15.63C91.045 15.63 88.7492 13.3692 88.7492 10.5805C88.7492 7.79181 91.0451 5.53101 93.8758 5.53101C96.7066 5.53101 99.0025 7.79181 99.0025 10.5805C99.0025 13.3692 96.7066 15.63 93.8758 15.63Z" fill="#222222"/>
</svg>
