<svg width="69" height="77" viewBox="0 0 69 77" fill="none" xmlns="http://www.w3.org/2000/svg">
<path d="M68.0303 66.7452H51.0361C51.9584 65.7983 52.5436 64.5825 52.6998 63.281C53.5884 63.1488 54.4126 62.7445 55.0499 62.1238C55.6887 61.5031 56.1085 60.6991 56.251 59.8289L58.791 44.7159H67.7852C68.303 44.6948 68.712 44.277 68.712 43.7691C68.712 43.2596 68.303 42.8418 67.7852 42.8207H59.1096L61.9376 25.9914C62.0127 25.5496 61.8855 25.0972 61.5899 24.7561C61.2942 24.4149 60.8607 24.218 60.4026 24.218H60.1927L59.174 20.01C59.0407 19.4599 58.7741 18.9489 58.3972 18.5206L56.7856 16.6871C56.3934 16.2422 56.277 15.623 56.4792 15.07L57.3004 12.8337C57.5225 12.231 57.573 11.5803 57.4459 10.9521C57.3187 10.3239 57.0185 9.74076 56.5788 9.26735L54.8308 7.38123C54.2977 6.80713 53.5869 6.42089 52.8071 6.28413C52.0273 6.14736 51.2246 6.26609 50.5214 6.62227L47.1097 8.3536C46.765 8.52643 46.3713 8.57753 45.9913 8.49787L43.6964 8.00493C43.0852 7.87718 42.5996 7.42031 42.4418 6.82667L42.0971 5.53569C41.8443 4.6039 41.2162 3.81338 40.3567 3.34599L36.6785 1.35016C36.1101 1.04206 35.4667 0.891776 34.8171 0.914319C34.1676 0.936862 33.5364 1.13224 32.9926 1.4794L30.2488 3.23177C30.2013 3.26182 30.1523 3.28888 30.1017 3.31442L23.3503 6.71245C22.854 6.96343 22.2611 6.95141 21.7755 6.68089L19.8482 5.61083C19.1956 5.24864 18.4434 5.09685 17.6989 5.175C16.9543 5.25315 16.2512 5.55823 15.692 6.04667L13.9486 7.56458C13.3435 8.08909 12.9375 8.79845 12.795 9.57845C12.6526 10.3569 12.7812 11.161 13.1627 11.8598L14.8938 15.0489C15.165 15.5614 15.1451 16.1746 14.8417 16.6691C14.5384 17.1635 13.9946 17.4671 13.4063 17.4701H12.2328C11.2799 17.4701 10.3669 17.8428 9.69279 18.5041C9.01872 19.1653 8.63879 20.0611 8.63879 20.9959V24.2195C8.18226 24.2195 7.74718 24.4149 7.45151 24.7576C7.15584 25.0987 7.02869 25.5511 7.10375 25.993L9.93178 42.8268H1.00651C0.743007 42.8162 0.487167 42.9109 0.297203 43.0898C0.107238 43.2671 0 43.5136 0 43.7721C0 44.0306 0.107238 44.277 0.297203 44.4559C0.487167 44.6347 0.743007 44.7294 1.00651 44.7189H10.2412L12.7812 59.8319C12.9237 60.7021 13.345 61.5061 13.9823 62.1268C14.6196 62.7475 15.4438 63.1518 16.3324 63.284C16.4901 64.5855 17.0738 65.8014 17.9961 66.7497H1.00651C0.473379 66.7497 0.0398313 67.1735 0.0398313 67.698C0.0398313 68.2225 0.473379 68.6463 1.00651 68.6463H7.88966V75.1388C7.88966 75.6618 8.3232 76.0871 8.85633 76.0871H18.6655C18.9214 76.0871 19.168 75.9864 19.3488 75.8091C19.5296 75.6317 19.6307 75.3898 19.6307 75.1388V68.6463H28.654V75.1388C28.654 75.6618 29.086 76.0871 29.6207 76.0871H39.4299C39.963 76.0871 40.3966 75.6618 40.3966 75.1388V68.6463H49.4138V75.1388C49.4138 75.3898 49.5149 75.6317 49.6956 75.8091C49.8764 75.9864 50.1231 76.0871 50.3789 76.0871H60.1881C60.7212 76.0871 61.1548 75.6618 61.1548 75.1388V68.6463H68.0318C68.5649 68.6463 68.9985 68.2225 68.9985 67.698C68.9985 67.175 68.5649 66.7497 68.0318 66.7497L68.0303 66.7452ZM39.4268 66.7452H26.9796C27.8911 65.8074 28.4732 64.6066 28.6387 63.3216H40.4012C40.5666 64.6066 41.1488 65.8074 42.0603 66.7452H39.4268ZM18.2259 62.5626C18.2259 61.452 18.6747 60.388 19.4744 59.602C20.2741 58.8174 21.3603 58.3756 22.4909 58.3756C23.6215 58.3756 24.7076 58.8159 25.5073 59.602C26.3086 60.3865 26.7574 61.452 26.7574 62.5626C26.7574 63.6733 26.3086 64.7373 25.5073 65.5218C24.7076 66.3063 23.6215 66.7467 22.4894 66.7467C21.3588 66.7452 20.2741 66.3048 19.4744 65.5203C18.6778 64.7343 18.2274 63.6718 18.2259 62.5626ZM42.2824 62.5626C42.2824 61.4535 42.7313 60.388 43.531 59.602C44.3307 58.8174 45.4153 58.3756 46.5474 58.3756C47.6796 58.3756 48.7642 58.8159 49.5654 59.6004C50.3651 60.385 50.8155 61.449 50.8155 62.5596C50.8155 63.6703 50.3666 64.7343 49.5654 65.5188C48.7657 66.3033 47.6811 66.7452 46.549 66.7452C45.4184 66.7437 44.3337 66.3033 43.5341 65.5188C42.7344 64.7343 42.284 63.6718 42.2824 62.5626ZM10.5706 20.9944C10.5721 20.0941 11.3151 19.3652 12.2328 19.3637H13.4063C14.6717 19.3577 15.8406 18.704 16.4917 17.6384C17.1428 16.5744 17.1795 15.2533 16.5897 14.1562L14.8693 10.9671C14.5078 10.3028 14.6594 9.48076 15.2339 8.9818L16.9743 7.46539C17.5074 7.00401 18.2795 6.92586 18.8969 7.27002L20.8241 8.34007C21.8766 8.92469 23.1588 8.95024 24.2343 8.4077L30.9826 5.01268C31.0944 4.95708 31.2017 4.89546 31.3043 4.83084L34.0389 3.08599C34.5536 2.75686 35.2108 2.73281 35.7486 3.02437L39.4345 5.01719C39.8313 5.23361 40.1208 5.59881 40.2388 6.03014L40.5865 7.31811C40.7535 7.94782 41.0952 8.52042 41.5747 8.96978C42.0526 9.42064 42.6501 9.73024 43.2997 9.867L45.5976 10.3599C46.4157 10.5313 47.2675 10.4216 48.0105 10.0458L51.4222 8.31452C52.0916 7.97637 52.9082 8.11915 53.4168 8.66469L55.1648 10.5523C55.5784 10.9972 55.7071 11.6299 55.5003 12.1965L54.6792 14.4328C54.4647 15.0219 54.4126 15.6546 54.529 16.2693C54.6454 16.884 54.9258 17.4566 55.341 17.93L56.9449 19.7605C57.118 19.9589 57.2406 20.1933 57.3034 20.4473L58.2165 24.218H10.5783L10.5706 20.9944ZM14.6916 59.5268L9.07693 26.1132H59.9614L54.3467 59.5268C54.2747 59.9641 54.0725 60.3714 53.7661 60.6976C53.4597 61.0237 53.0629 61.2551 52.6248 61.3618C52.2402 59.5073 50.9978 57.9338 49.2621 57.1057C47.5264 56.2776 45.498 56.2896 43.7715 57.1372C42.0465 57.9848 40.8225 59.5734 40.4594 61.4325H28.5789C28.2174 59.5719 26.9918 57.9848 25.2668 57.1372C23.5418 56.2896 21.512 56.2776 19.7762 57.1057C18.0405 57.9338 16.7981 59.5073 16.4135 61.3618C15.9754 61.2551 15.5771 61.0237 15.2722 60.6976C14.9658 60.3714 14.7651 59.9641 14.6916 59.5268ZM17.7065 74.1874H9.8322V68.6433H17.7081L17.7065 74.1874ZM38.4632 74.1874H30.5874V68.6433H38.4632V74.1874ZM59.2199 74.1874H51.344V68.6433H59.2199V74.1874Z" fill="#EC2333"/>
</svg>
