<svg width="68" height="79" viewBox="0 0 68 79" fill="none" xmlns="http://www.w3.org/2000/svg">
<path d="M53.0076 46.6653C50.6206 46.6653 48.3813 46.6653 45.9779 46.6653C46.1584 47.9448 46.3225 49.1753 46.5091 50.4016C47.7723 58.6565 49.056 66.9072 50.2925 75.1662C50.4422 76.1694 50.3909 77.2094 50.3458 78.229C50.3356 78.4808 49.9911 78.7183 49.8004 78.9619C49.5789 78.7122 49.2159 78.4869 49.1647 78.2065C49.0642 77.6516 49.1339 77.0661 49.1339 76.4171C40.677 76.4171 32.3288 76.4171 23.8227 76.4171C23.8227 76.9822 23.9109 77.5349 23.7919 78.0406C23.712 78.3846 23.3408 78.663 23.1009 78.9701C22.8999 78.661 22.5308 78.3518 22.5287 78.0406C22.5164 76.9207 22.5923 75.7947 22.7092 74.6789C22.7687 74.1097 22.6292 73.819 22.0796 73.6C20.5601 72.9919 19.0754 72.2897 17.5538 71.6878C17.2216 71.5567 16.7397 71.567 16.4075 71.7041C11.5249 73.7433 6.65667 75.8131 1.78637 77.883C1.57105 77.9751 1.39059 78.1512 1.17322 78.2351C0.863575 78.3559 0.535471 78.4296 0.217619 78.5238C0.143796 78.1839 -0.0510161 77.8195 0.0125542 77.5083C1.98323 67.9288 3.97852 58.3535 5.9697 48.7801C7.48924 41.4732 9.01082 34.1683 10.5283 26.8614C10.5755 26.6301 10.5816 26.3905 10.6206 26.0281C10.231 26.0056 9.87825 25.9688 9.52348 25.9688C7.50769 25.9626 5.48985 25.9851 3.47611 25.9401C3.1275 25.9319 2.78299 25.6494 2.43643 25.4938C2.59433 25.1765 2.6784 24.7834 2.92038 24.5561C5.30119 22.304 7.72916 20.1011 10.0854 17.8265C10.4688 17.456 10.7559 16.8008 10.7723 16.2665C10.8482 14.0267 10.8051 11.7828 10.8051 9.40994C8.54942 9.40994 6.40649 9.43861 4.26561 9.39152C3.66272 9.37923 3.06393 9.14993 2.46308 9.0189C2.81785 8.49069 3.09264 7.87854 3.54173 7.4486C5.78719 5.30095 8.18031 3.29661 10.3007 1.0384C11.164 0.119148 11.9802 -0.00573977 13.0486 0.00449689C15.9195 0.0311122 18.7904 0.0372542 21.6592 0.000402229C22.6087 -0.0118818 23.3572 0.256319 24.0421 0.925797C26.4352 3.26385 28.8734 5.55482 31.2686 7.89082C31.5516 8.16721 31.6705 8.61148 31.8653 8.97591C31.447 9.12127 31.0307 9.38128 30.6103 9.38947C28.4244 9.43246 26.2363 9.43451 24.0503 9.39561C23.3244 9.38333 23.1029 9.6331 23.1152 10.3374C23.1501 12.2127 23.0906 14.0901 23.148 15.9655C23.1603 16.3729 23.4228 16.8643 23.7243 17.1591C26.2158 19.5913 28.7566 21.9724 31.2481 24.4046C31.5475 24.6953 31.65 25.1867 31.8428 25.5839C31.445 25.7108 31.0492 25.9422 30.6473 25.9503C28.5638 25.9872 26.4783 25.9667 24.3948 25.9667C24.0278 25.9667 23.6586 25.9667 23.146 25.9667C24.4563 32.2397 25.7359 38.3674 27.0176 44.493C27.0832 44.5033 27.1468 44.5115 27.2124 44.5217C27.2801 44.2965 27.3908 44.0754 27.4093 43.844C27.602 41.4384 27.8522 39.0328 27.9424 36.6231C28.0347 34.2052 27.9794 31.7791 27.9548 29.3571C27.9466 28.5832 28.2111 28.2556 29.0272 28.2577C33.9816 28.2823 38.938 28.2823 43.8924 28.2597C44.7701 28.2556 45.0059 28.6467 44.9998 29.4431C44.9752 32.7188 44.9137 35.9946 45.0141 39.2662C45.0716 41.0965 45.3956 42.9207 45.6785 44.7346C45.7134 44.9598 46.2404 45.2587 46.546 45.2649C48.6294 45.312 50.715 45.2894 52.7984 45.2915C54.2195 45.2935 54.2564 45.3324 54.2564 46.7123C54.2564 51.4212 54.2564 56.128 54.2564 60.8369C54.2564 61.273 54.2564 61.707 54.2564 62.1963C54.7486 62.1963 55.1074 62.1963 55.5914 62.1963C55.5914 61.8257 55.5914 61.492 55.5914 61.1604C55.5914 56.1444 55.6119 51.1305 55.577 46.1145C55.5668 44.4992 56.0036 43.2401 57.6257 42.5972C57.8082 42.5255 58.0009 42.2082 58.005 42.0014C58.0235 40.7485 58.5033 39.7883 59.3154 38.7953C59.8096 38.1893 59.6312 37.0346 59.7542 36.1256C59.6312 36.1768 59.5061 36.228 59.3831 36.2791C58.9709 35.9454 58.1957 35.5912 58.2142 35.2821C58.2675 34.3874 59.137 34.7129 59.6845 34.6965C61.2204 34.6495 62.7605 34.6597 64.2964 34.6904C64.8275 34.7006 65.6458 34.455 65.6601 35.2964C65.6663 35.6219 64.967 35.9577 64.483 36.2136C64.3436 37.3233 63.9806 38.521 65.1536 39.5753C65.6458 40.0196 65.8447 40.9921 65.857 41.7312C65.9226 45.7214 65.8959 49.7137 65.8836 53.706C65.8775 55.5896 64.9834 56.5662 62.6662 57.2561C62.6662 58.8633 62.6662 60.4868 62.6662 62.2598C64.0565 62.2598 65.412 62.3048 66.7634 62.2455C67.721 62.2045 68.0061 62.5955 67.9999 63.5087C67.9691 68.1479 67.9856 72.7892 67.9815 77.4285C67.9815 77.666 68.0307 77.9444 67.9261 78.1307C67.8133 78.3334 67.5447 78.5688 67.3457 78.5688C67.1509 78.5688 66.8638 78.3232 66.7839 78.1205C66.6772 77.8502 66.7203 77.5186 66.7203 77.2115C66.7182 73.0492 66.6957 68.887 66.7388 64.7248C66.749 63.8137 66.5234 63.4902 65.5514 63.5046C61.7926 63.5598 58.0337 63.5025 54.2749 63.5455C53.2926 63.5558 52.9768 63.2282 52.985 62.2455C53.0281 57.5038 53.0035 52.7622 53.0055 48.0185C53.0076 47.6132 53.0076 47.2078 53.0076 46.6653ZM43.7899 41.1231C43.3859 41.0986 43.1173 41.0699 42.8486 41.0699C38.612 41.0678 34.3733 41.0883 30.1367 41.0515C29.3554 41.0453 29.097 41.293 28.9821 42.0567C27.5897 51.3229 26.1584 60.581 24.7414 69.8431C24.4809 71.5424 24.241 73.2437 23.9908 74.9471C32.3903 74.9471 40.638 74.9471 48.9637 74.9471C47.2329 63.6294 45.5165 52.4183 43.7899 41.1231ZM4.36814 64.5896C7.59382 65.9736 10.637 67.0505 13.4505 68.5512C15.9461 69.884 18.046 69.7121 20.6134 68.6331C23.0762 67.5972 24.5507 66.3729 24.3866 63.6213C24.3825 63.5557 24.403 63.4841 24.4256 63.4206C24.645 62.8146 24.4051 62.5096 23.8206 62.2639C21.7474 61.3917 19.7111 60.4274 17.6236 59.5839C17.154 59.3935 16.4772 59.4038 16.0015 59.5901C14.1272 60.3189 12.296 61.1542 10.4483 61.9527C8.51251 62.7921 6.57875 63.6315 4.36814 64.5896ZM43.6094 32.6205C38.7453 32.6205 34.0226 32.6205 29.2323 32.6205C29.2323 34.7211 29.2692 36.7295 29.2139 38.7359C29.1913 39.5467 29.4292 39.778 30.2494 39.7719C34.4143 39.7309 38.5792 39.7555 42.7441 39.7514C43.0353 39.7514 43.3265 39.7043 43.6094 39.6777C43.6094 37.2659 43.6094 34.9607 43.6094 32.6205ZM7.12217 53.3232C7.26161 53.5115 7.29032 53.5914 7.34364 53.6139C10.3725 54.9529 13.3992 56.2939 16.4383 57.6123C16.6598 57.7086 16.9899 57.7147 17.2114 57.6226C19.947 56.4679 22.6784 55.303 25.3894 54.093C25.6539 53.9742 25.8733 53.5607 25.9287 53.2495C25.9595 53.0877 25.6273 52.7684 25.3955 52.6639C22.8445 51.5113 20.2853 50.3771 17.7158 49.2633C17.4267 49.1384 17.0145 49.0422 16.752 49.1528C13.551 50.5101 10.3684 51.9085 7.12217 53.3232ZM64.563 47.6992C64.563 45.6887 64.5815 43.6761 64.5569 41.6657C64.5384 40.2469 63.8186 39.5651 62.3852 39.5262C62.1125 39.518 61.8397 39.516 61.565 39.5221C60.0946 39.559 59.3585 40.2735 59.3544 41.7353C59.34 45.6887 59.3379 49.6441 59.3482 53.5975C59.3523 55.1637 60.1213 55.8373 61.8438 55.8496C63.8002 55.8619 64.5384 55.2784 64.5569 53.6303C64.5815 51.6526 64.5651 49.6769 64.563 47.6992ZM3.76525 65.7464C3.01266 69.3866 2.29493 72.8588 1.52594 76.5788C6.21373 74.597 10.6636 72.7135 15.3596 70.7276C11.367 69.0119 7.65124 67.415 3.76525 65.7464ZM9.49683 44.0549C9.70804 44.2146 9.80032 44.3149 9.91311 44.3661C12.1545 45.3631 14.3876 46.3745 16.6475 47.3265C16.9653 47.4596 17.4493 47.3961 17.7876 47.2569C19.4261 46.5834 21.04 45.8504 22.662 45.142C23.3346 44.8493 24.0072 44.5585 24.9136 44.1655C22.258 42.9841 19.867 41.9154 17.4698 40.8652C17.3057 40.7935 17.0555 40.7976 16.8874 40.8693C14.4512 41.9073 12.0191 42.9637 9.49683 44.0549ZM16.9161 26.1592C15.5175 26.1592 14.1169 26.1244 12.7205 26.1878C12.4252 26.2001 11.9166 26.5564 11.9022 26.7795C11.8407 27.7459 10.9897 28.6631 11.6726 29.6663C11.7546 29.787 11.972 29.8178 12.1258 29.8894C12.9009 30.2436 13.7417 30.4995 14.4409 30.9663C16.3419 32.2336 18.0911 32.1108 20.0967 31.0277C22.5923 29.6826 22.6477 29.8382 22.0735 27.0477C21.9258 26.3311 21.6223 26.1141 20.9087 26.1448C19.5799 26.2022 18.247 26.1612 16.9161 26.1592ZM6.10299 54.4963C5.496 57.4404 4.92387 60.2063 4.30867 63.1872C8.02241 61.5862 11.4983 60.0876 15.1976 58.4927C12.0499 57.1107 9.16257 55.8414 6.10299 54.4963ZM61.2307 57.2008C58.9073 56.6992 58.0378 55.6285 58.0317 53.3293C58.0235 50.502 58.0296 47.6746 58.0235 44.8472C58.0235 44.5667 57.9743 44.2842 57.9394 43.9177C57.0084 44.362 56.8936 45.0581 56.8936 45.8402C56.8997 50.9851 56.8936 56.128 56.8956 61.273C56.8956 61.5678 56.9366 61.8626 56.9612 62.1902C58.4152 62.1902 59.7932 62.1902 61.2307 62.1902C61.2307 60.5032 61.2307 58.8837 61.2307 57.2008ZM23.5356 36.5739C21.3537 35.5728 19.4384 34.6884 17.5169 33.8203C17.3754 33.7568 17.1601 33.7323 17.0248 33.7916C15.0684 34.6474 13.1203 35.5196 10.9118 36.5002C13.0957 37.4727 15.011 38.3326 16.9345 39.172C17.0965 39.2437 17.3467 39.2273 17.5149 39.1556C19.4261 38.349 21.3311 37.5239 23.5356 36.5739ZM15.4868 48.2581C12.8866 47.1075 10.5447 46.0736 8.07572 44.9803C7.58357 47.3921 7.12217 49.6523 6.61976 52.1234C9.65678 50.7988 12.4498 49.5827 15.4868 48.2581ZM18.7309 48.2724C21.3578 49.4332 23.7243 50.4774 26.1215 51.5359C26.9766 49.3002 26.3204 47.3102 25.7893 45.1932C23.4454 46.2169 21.2225 47.1873 18.7309 48.2724ZM43.6094 29.5373C43.1521 29.5373 42.7523 29.5373 42.3524 29.5373C38.4254 29.5373 34.4984 29.5373 30.5714 29.5373C29.0806 29.5373 29.0006 29.6458 29.3964 31.1383C34.117 31.1383 38.8437 31.1383 43.6074 31.1383C43.6094 30.5998 43.6094 30.1371 43.6094 29.5373ZM23.3756 2.11325C23.2936 2.16443 23.2116 2.21766 23.1296 2.26885C23.1296 3.96813 23.146 5.66947 23.1214 7.36875C23.1132 7.95019 23.349 8.14674 23.9088 8.13855C25.3422 8.11808 26.7756 8.13241 28.207 8.13445C28.5823 8.13445 28.9555 8.13445 29.3307 8.13445C29.3492 8.03823 29.3656 7.94201 29.3841 7.84578C27.3826 5.93357 25.3791 4.02341 23.3756 2.11325ZM29.5727 24.5725C27.3908 22.4904 25.3812 20.572 23.1972 18.4878C23.1972 20.6887 23.1972 22.603 23.1972 24.5725C25.2828 24.5725 27.2985 24.5725 29.5727 24.5725ZM18.4623 58.5111C20.7098 59.4979 22.6682 60.3599 24.7455 61.273C25.0469 59.283 25.3217 57.467 25.6293 55.4299C23.1849 56.4802 20.9784 57.4281 18.4623 58.5111ZM9.66908 37.3847C9.27125 39.2908 8.90419 41.0576 8.48585 43.0619C10.9097 42.0199 13.1244 41.0678 15.5852 40.0094C13.4812 39.0758 11.6377 38.2589 9.66908 37.3847ZM10.7723 2.4613C8.69502 4.40217 6.82277 6.14854 4.78647 8.05051C6.96222 8.05051 8.84472 8.05051 10.7723 8.05051C10.7723 6.24272 10.7723 4.51887 10.7723 2.4613ZM10.7641 19.0078C8.69092 20.9426 6.82072 22.6889 4.82544 24.552C6.96222 24.552 8.85087 24.552 10.7641 24.552C10.7641 22.7381 10.7641 21.0122 10.7641 19.0078ZM18.8129 40.0257C21.0871 41.0351 23.1214 41.938 25.3648 42.935C24.9752 41.0801 24.6327 39.4423 24.2615 37.6754C22.4549 38.4554 20.7529 39.1904 18.8129 40.0257ZM11.0225 30.8046C10.6985 32.3892 10.4114 33.8019 10.0731 35.4622C12.0171 34.586 13.7253 33.8141 15.6549 32.944C13.9878 32.1742 12.579 31.5232 11.0225 30.8046ZM21.8192 10.2473C20.4719 11.2628 19.3277 12.1268 18.0645 13.0808C19.3543 14.0472 20.5129 14.9132 21.8192 15.8918C21.8192 13.9161 21.8192 12.2271 21.8192 10.2473ZM21.8192 18.5226C20.4883 19.5197 19.34 20.3775 18.0583 21.3357C19.342 22.2959 20.5027 23.1639 21.8192 24.1487C21.8192 22.1853 21.8192 20.4983 21.8192 18.5226ZM21.7987 7.60624C21.7987 5.63671 21.7987 3.93947 21.7987 1.98222C20.476 2.97927 19.3174 3.85348 18.0563 4.80549C19.3318 5.75955 20.4617 6.6051 21.7987 7.60624ZM12.2406 10.3169C12.2406 12.2353 12.2406 13.9489 12.2406 15.8283C13.5182 14.8661 14.646 14.0185 15.899 13.0767C14.6337 12.1227 13.4935 11.2628 12.2406 10.3169ZM12.1975 18.5554C12.1975 20.4901 12.1975 22.1935 12.1975 24.1221C13.4935 23.1475 14.6337 22.2877 15.8949 21.3377C14.6378 20.3918 13.512 19.5442 12.1975 18.5554ZM12.2037 7.57963C13.4976 6.60305 14.6399 5.74112 15.8969 4.79321C14.6194 3.83506 13.4771 2.97722 12.2037 2.02317C12.2037 3.97018 12.2037 5.67356 12.2037 7.57963ZM13.8668 1.35574C13.8299 1.42535 13.7929 1.49291 13.756 1.56252C14.8285 2.36712 15.901 3.16967 16.9858 3.98246C18.1157 3.12668 19.1554 2.3405 20.1951 1.55228C20.1664 1.48677 20.1356 1.42125 20.1069 1.35574C18.0255 1.35574 15.9461 1.35574 13.8668 1.35574ZM20.1848 18.1193C20.152 18.0517 20.1213 17.9842 20.0884 17.9166C18.0111 17.9166 15.9359 17.9166 13.5305 17.9166C14.8265 18.9014 15.8887 19.7101 16.9756 20.5372C18.0952 19.6937 19.139 18.9055 20.1848 18.1193ZM16.9817 13.8834C15.8846 14.7105 14.8244 15.511 13.5387 16.4814C15.9441 16.4814 18.0152 16.4814 20.0864 16.4814C20.1151 16.4159 20.1438 16.3504 20.1725 16.2828C19.1287 15.4967 18.0829 14.7125 16.9817 13.8834ZM20.4535 24.7813C19.2559 23.8743 18.3167 23.1455 17.3508 22.4535C17.197 22.3429 16.8566 22.2877 16.7233 22.3798C15.7124 23.0943 14.7301 23.8498 13.7396 24.593C13.7745 24.6564 13.8093 24.7178 13.8442 24.7813C15.942 24.7813 18.0398 24.7813 20.4535 24.7813ZM13.5387 9.64539C14.7034 10.538 15.6078 11.2525 16.5408 11.9241C16.7192 12.053 17.1088 12.1288 17.2565 12.0264C18.2613 11.316 19.2292 10.5503 20.4145 9.64539C18.0337 9.64539 15.9461 9.64539 13.5387 9.64539ZM23.6033 68.6434C21.8684 69.3825 20.394 70.011 18.6796 70.7419C20.273 71.4175 21.5957 71.9805 23.0229 72.5845C23.2218 71.2353 23.392 70.0704 23.6033 68.6434ZM22.8917 31.1444C21.5239 31.7586 20.2956 32.3094 18.8232 32.9706C20.6114 33.7957 22.0817 34.4713 23.7591 35.2452C23.4454 33.7691 23.1829 32.5264 22.8917 31.1444ZM13.5858 8.15902C15.9461 8.15902 18.0111 8.15902 20.353 8.15902C19.1041 7.21725 18.0829 6.44745 16.9879 5.62238C15.9154 6.42288 14.8634 7.20701 13.5858 8.15902ZM62.9163 36.0683C62.2622 36.0683 61.6695 36.0683 61.0728 36.0683C61.0728 36.8155 61.0728 37.4973 61.0728 38.1627C63.1296 38.4432 63.2937 38.2548 62.9163 36.0683Z" fill="#EC2333"/>
</svg>
