<svg width="78" height="77" viewBox="0 0 78 77" fill="none" xmlns="http://www.w3.org/2000/svg">
<path d="M52.9388 62.717C52.9388 64.7121 52.8593 66.4649 52.9637 68.2064C53.0477 69.6203 52.4734 70.6975 51.3382 71.3102C49.3291 72.3964 47.2904 73.5589 45.1178 74.1985C36.4274 76.7525 27.7233 76.6223 19.1577 73.6083C17.4119 72.9934 15.8364 71.8758 14.2404 70.8995C13.4231 70.399 13.1325 69.5395 13.1348 68.5677C13.1688 58.8075 13.2596 49.0473 13.1643 39.2893C13.1393 36.7915 14.2654 35.2968 16.2359 34.1253C19.5255 32.1683 23.1896 31.3627 26.931 31.0754C30.8085 30.7769 34.7111 30.7634 38.6045 30.7432C44.9226 30.7118 51.2429 30.6804 57.5541 30.8599C59.3862 30.9116 61.241 31.5669 63.0027 32.1796C64.4352 32.6778 65.0618 33.8515 65.055 35.4517C65.0141 45.25 65.0346 55.0484 65.0391 64.8468C65.0391 67.4187 64.3262 68.386 61.8403 69.167C59.1456 70.013 59.1388 70.0085 59.1388 67.275C59.1388 66.1529 59.1637 65.0308 59.1138 63.9109C59.1024 63.6528 58.8527 63.204 58.6756 63.186C56.8141 62.993 54.9457 62.8696 52.9388 62.717ZM14.1791 41.1902C14.1791 41.8747 14.1791 42.42 14.1791 42.9654C14.1814 51.3746 14.2041 59.786 14.1587 68.1952C14.1518 69.3151 14.5446 70.1073 15.4527 70.6077C16.8648 71.3865 18.2814 72.2191 19.7979 72.7488C27.0785 75.2915 34.5204 75.4935 42.0371 73.9696C44.9748 73.3727 47.7967 72.4323 50.3507 70.8232C51.4132 70.1544 51.9172 69.3038 51.9058 67.9618C51.8445 59.4763 51.874 50.9908 51.8718 42.5076C51.8718 42.1171 51.8377 41.7288 51.815 41.1902C49.3995 43.3402 46.6162 44.3232 43.6853 44.983C38.625 46.1208 33.5056 46.3385 28.3544 45.8717C23.3327 45.4116 18.3949 44.6396 14.1791 41.1902ZM31.6417 31.6813C29.8391 31.8878 26.6336 32.1302 23.478 32.6576C20.6061 33.1356 17.8024 33.9862 15.5299 35.9432C13.7114 37.5096 13.6978 39.415 15.6048 40.876C16.6922 41.7086 17.9363 42.4178 19.2167 42.916C24.0864 44.8124 29.2126 45.1019 34.3751 45.0099C38.8179 44.9291 43.2085 44.4668 47.3381 42.7208C48.5322 42.2158 49.6991 41.5111 50.6753 40.6695C52.3485 39.2287 52.3122 37.4692 50.6254 36.0599C49.7173 35.3013 48.6594 34.6617 47.5719 34.1792C42.952 32.1279 38.0074 31.8654 31.6417 31.6813ZM59.1297 62.0706C59.1297 61.6801 59.1297 61.2784 59.1297 60.879C59.1297 53.5537 59.1479 46.2285 59.1138 38.9011C59.1093 37.9854 59.3544 37.5613 60.3057 37.4064C61.1116 37.2762 61.9811 37.0541 62.6304 36.603C63.2116 36.199 63.8518 35.4382 63.8722 34.8165C63.8904 34.26 63.2093 33.4969 62.6349 33.1513C61.8176 32.6621 60.8324 32.2648 59.8902 32.1908C56.8458 31.9484 53.7901 31.8362 50.7366 31.7442C48.6049 31.6791 46.4709 31.7307 44.3369 31.7307C44.8023 32.0516 45.3176 32.1549 45.7785 32.3681C47.4789 33.1558 49.2315 33.8672 50.8274 34.83C52.1147 35.6088 52.9342 36.8633 52.9365 38.4679C52.941 45.865 52.941 53.2642 52.9478 60.6613C52.9478 61.0159 52.9887 61.3704 53.0091 61.6801C55.1 61.817 57.0547 61.9405 59.1297 62.0706ZM60.2739 68.4017C62.728 68.1638 63.9857 67.118 63.9857 65.3989C63.9857 56.2423 63.9948 47.0858 63.9971 37.9293C63.9971 37.6892 63.9358 37.449 63.9108 37.2807C62.6644 37.7453 61.4794 38.1874 60.2739 38.6363C60.2739 48.5468 60.2739 58.4709 60.2739 68.4017Z" fill="#EC2333" stroke="#EC2333" stroke-width="0.6"/>
<path d="M31.111 15.6909C28.8908 14.8718 26.9406 14.1716 25.0109 13.422C24.6658 13.2874 24.398 12.9597 24.0938 12.7196C24.3912 12.4749 24.65 12.1338 24.9928 11.9992C26.9066 11.2563 28.8408 10.5628 31.111 9.72574C29.0678 8.96943 27.347 8.36348 25.6534 7.68572C25.0995 7.46354 24.6204 7.05733 24.1051 6.73641C24.6159 6.41997 25.0927 6.01376 25.6466 5.80505C29.842 4.22061 34.0487 2.65861 38.2691 1.13926C38.7481 0.966452 39.3951 0.948499 39.8696 1.11906C44.342 2.73267 48.7939 4.39566 53.2435 6.06538C53.5636 6.18657 53.8156 6.48056 54.0994 6.69377C53.8066 6.94288 53.5546 7.29522 53.2163 7.42763C51.2889 8.17721 49.3387 8.87293 47.0912 9.70105C47.795 9.98383 48.2468 10.1768 48.7076 10.3474C50.1923 10.895 51.6907 11.4134 53.1641 11.9924C53.5137 12.1293 53.7907 12.448 54.1017 12.6837C53.8066 12.9238 53.5455 13.2582 53.2072 13.3906C51.2798 14.1447 49.3342 14.8494 47.0889 15.6842C48.7371 16.3059 50.1152 16.8265 51.4955 17.3472C52.0948 17.5739 52.7146 17.7601 53.2912 18.0339C53.5954 18.1776 53.8293 18.4716 54.0926 18.6982C53.8179 18.9204 53.5795 19.2346 53.2662 19.3536C50.4466 20.4263 47.6156 21.4654 44.7846 22.5112C43.477 22.9937 42.1171 23.3708 40.8685 23.9745C39.5881 24.5939 38.4734 24.4368 37.2066 23.943C33.1633 22.3743 29.0769 20.9133 25.0177 19.385C24.6749 19.2548 24.4093 18.9227 24.1074 18.6825C24.4048 18.4469 24.6681 18.1215 25.0087 17.9891C26.9361 17.235 28.8794 16.5258 31.111 15.6909ZM26.2005 6.69152C26.473 6.85086 26.591 6.94512 26.7249 6.9945C30.6502 8.44428 34.5686 9.90304 38.5097 11.3102C38.9161 11.4561 39.4768 11.3977 39.8968 11.2473C43.3703 9.9973 46.8279 8.70461 50.29 7.4209C50.8076 7.2279 51.3161 7.01245 52.0403 6.7207C47.7201 5.11831 43.6336 3.59446 39.5359 2.09755C39.2521 1.99432 38.8571 2.019 38.5688 2.12448C34.4982 3.61017 30.439 5.12055 26.2005 6.69152ZM52.0653 12.7128C50.0607 11.9588 48.3239 11.2473 46.5441 10.6683C45.9561 10.4776 45.2024 10.4663 44.6121 10.6504C42.9934 11.1553 41.4315 11.8421 39.8219 12.374C39.3679 12.5243 38.7776 12.5176 38.3236 12.3672C36.6754 11.8219 35.0635 11.1733 33.4267 10.5898C33.0839 10.4663 32.648 10.3092 32.3415 10.4147C30.3165 11.1149 28.3164 11.8825 26.2527 12.6477C26.3935 12.7712 26.4344 12.8318 26.4888 12.852C30.5185 14.3534 34.5436 15.866 38.5869 17.3292C38.957 17.4639 39.4746 17.3674 39.8696 17.2283C42.0399 16.4607 44.1967 15.6483 46.3534 14.8471C48.1764 14.1693 49.9948 13.4849 52.0653 12.7128ZM52.0971 18.7005C50.9029 18.2471 49.9948 17.9958 49.1775 17.5716C46.7847 16.3283 44.435 16.151 42.0354 17.5402C40.1511 18.6309 38.2509 18.7027 36.2826 17.621C35.37 17.1205 34.3234 16.858 33.3291 16.5056C33.0521 16.4069 32.7047 16.2565 32.4664 16.3418C30.4368 17.0577 28.4231 17.8207 26.087 18.687C30.5162 20.3276 34.5981 21.8492 38.6913 23.3393C38.9706 23.4403 39.3679 23.3708 39.6675 23.263C43.6972 21.7975 47.7201 20.3118 52.0971 18.7005Z" fill="#EC2333" stroke="#EC2333" stroke-width="0.6"/>
<path d="M1 39.8908C1.32918 28.1579 6.86855 18.1553 17.4705 10.8727C17.7906 10.6528 18.3128 10.7201 18.7396 10.655C18.5126 11.0141 18.3696 11.4966 18.0449 11.7166C9.87661 17.2576 4.56654 24.7309 2.7163 34.3924C1 43.3582 2.57554 51.7068 8.17393 59.1509C8.38734 59.4337 8.34193 59.9072 8.41685 60.2932C8.06269 60.1115 7.59049 60.0194 7.37027 59.7367C3.06137 54.2024 1.12486 47.8781 1 39.8908Z" fill="#EC2333" stroke="#EC2333" stroke-width="0.6"/>
<path d="M77.1345 39.866C77.1164 47.474 75.2866 53.677 71.2478 59.1956C71.0935 59.4066 70.9686 59.6737 70.7597 59.8061C70.5191 59.9565 70.2013 59.9879 69.9152 60.0709C69.9311 59.7657 69.8471 59.4044 69.9856 59.1687C70.3647 58.5269 70.8755 57.9613 71.2705 57.324C77.4092 47.4044 77.5455 37.1168 72.9755 26.6496C70.2399 20.3837 65.7879 15.471 60.0601 11.6737C59.7582 11.474 59.6288 11.0139 59.4199 10.675C59.8422 10.7312 60.3575 10.6526 60.6731 10.8658C69.5225 16.8243 74.9619 24.9844 76.7327 35.4538C77.0233 37.1796 77.0551 38.9481 77.1345 39.866Z" fill="#EC2333" stroke="#EC2333" stroke-width="0.6"/>
<path d="M32.4249 41.5871C29.7165 41.1001 27.2624 40.7164 24.8401 40.1912C23.8888 39.9848 22.815 39.4888 22.865 38.333C22.9104 37.276 23.9342 36.8473 24.8514 36.5847C30.2069 35.0564 35.5896 35.0968 40.9587 36.4972C41.9463 36.7553 43.1972 37.1076 43.179 38.4003C43.1631 39.6706 41.944 40.0947 40.9405 40.2788C38.0596 40.8106 35.1515 41.1787 32.4249 41.5871ZM42.1574 38.4789C40.0234 35.907 26.259 35.8756 23.9547 38.3734C26.0342 40.8376 38.9745 40.9475 42.1574 38.4789Z" fill="#EC2333" stroke="#EC2333" stroke-width="0.6"/>
</svg>
