<svg width="64" height="67" viewBox="0 0 64 67" fill="none" xmlns="http://www.w3.org/2000/svg">
<path d="M5.15017 33.5623C5.15017 31.8161 5.15627 30.1448 5.14041 28.4746C5.13919 28.3091 5.01106 28.1362 4.91954 27.9805C4.31794 26.9615 3.69926 25.9535 3.11231 24.9259C2.99272 24.7162 2.86581 24.3717 2.95734 24.2171C3.04886 24.0626 3.4064 24.0259 3.65167 24.0099C4.1166 23.9793 4.58396 24.0013 5.12211 24.0013C5.13675 23.7549 5.15871 23.5403 5.15993 23.3257C5.16238 21.3024 5.18312 19.2791 5.15383 17.2558C5.13309 15.8714 5.73224 14.8818 6.96472 14.341C9.31986 13.3061 11.7092 13.2926 14.0533 14.3754C15.409 15.0007 15.6934 15.6641 15.4676 17.1552C15.431 17.3956 15.4518 17.6445 15.4518 17.8898C15.4505 19.8898 15.4518 21.8897 15.4518 24.0001C16.1351 24.0001 16.7758 23.9952 17.4152 24.0013C18.1425 24.0087 18.2755 24.2306 17.9118 24.8462C17.165 26.1105 16.406 27.3686 15.658 28.6328C15.5677 28.7849 15.464 28.9627 15.4627 29.1295C15.4469 30.5776 15.4542 32.0258 15.4542 33.5648C16.1327 33.5648 16.7745 33.5574 17.4152 33.566C18.14 33.5758 18.273 33.8002 17.9106 34.4158C17.248 35.5415 16.6013 36.6769 15.8935 37.7732C15.5555 38.2968 15.4029 38.8204 15.4444 39.4335C15.4762 39.8946 15.4505 40.3581 15.4505 40.9062C15.6958 40.7836 15.8581 40.7162 16.0082 40.6267C18.3096 39.2422 20.6062 37.8456 22.9162 36.4758C23.2786 36.2613 23.4202 36.0221 23.4055 35.6015C23.375 34.7236 23.3689 33.8431 23.4141 32.9664C23.425 32.7419 23.6203 32.4746 23.8082 32.3238C24.2499 31.9657 24.7673 31.6996 25.1932 31.3269C25.3665 31.1748 25.4605 30.8425 25.4617 30.5924C25.4788 27.2619 25.4739 23.9302 25.4739 20.5997C25.4739 15.4704 25.4739 10.341 25.4727 5.21169C25.4727 4.97135 25.4727 4.73223 25.4727 4.41464C25.0431 4.41464 24.6685 4.47595 24.3293 4.39134C24.123 4.33984 23.8338 4.07374 23.8192 3.88613C23.7606 3.13445 23.7936 2.3754 23.7948 1.62004C23.796 1.15407 24.1108 1.12219 24.4647 1.12219C26.3964 1.12587 28.3281 1.12342 30.261 1.12342C30.9322 1.12342 31.6033 1.13568 32.2745 1.11974C32.6967 1.10993 32.8639 1.3049 32.8602 1.70956C32.8541 2.32268 32.8627 2.93579 32.8602 3.54891C32.8566 4.35333 32.8151 4.39257 31.9902 4.41954C31.8901 4.42322 31.79 4.43671 31.6375 4.4502C31.6375 11.8665 31.6375 19.2717 31.6375 26.7775C31.8401 26.6512 32.0207 26.5495 32.1903 26.4317C33.3569 25.6138 34.5186 24.7861 35.69 23.9756C35.9658 23.7843 36.2782 23.6469 36.615 23.4618C36.615 20.0749 36.615 16.628 36.615 13.1246C36.2257 13.1246 35.8633 13.1172 35.5021 13.1271C35.1397 13.1356 34.9859 12.9615 34.9896 12.6059C34.9957 11.8702 34.9969 11.1344 34.9884 10.3987C34.9835 10.0038 35.1739 9.85791 35.5522 9.85913C38.1965 9.86526 40.8396 9.86404 43.484 9.86036C43.8732 9.85913 44.0331 10.0382 44.027 10.422C44.0172 11.0547 43.9928 11.6911 44.0343 12.3214C44.0746 12.9284 43.8732 13.2153 43.2448 13.1307C43.1276 13.1148 43.0044 13.1454 42.836 13.1577C42.836 16.6096 42.836 20.0516 42.836 23.5452C44.4651 23.5452 46.0953 23.5452 47.7647 23.5452C47.7647 21.0633 47.7647 18.6022 47.7647 16.0688C47.412 16.0688 47.0923 16.0578 46.7738 16.0713C46.3675 16.0884 46.1625 15.9143 46.1637 15.4998C46.1661 14.7641 46.1649 14.0283 46.1625 13.2926C46.1612 12.9382 46.3248 12.7727 46.6835 12.7739C49.3474 12.7776 52.0112 12.7776 54.6763 12.7751C55.0668 12.7751 55.2218 12.9689 55.2181 13.3453C55.212 13.9793 55.2194 14.612 55.2169 15.246C55.2145 15.9915 55.1608 16.0467 54.4237 16.07C54.3041 16.0737 54.1858 16.0847 54.0076 16.097C53.9966 16.3288 53.9783 16.547 53.9771 16.7641C53.9747 19.7475 53.9844 22.7309 53.9637 25.7156C53.96 26.1583 54.1101 26.3986 54.4689 26.6476C57.1132 28.4795 59.7368 30.3422 62.3726 32.1852C62.7082 32.4195 62.9132 32.6316 62.7106 33.0865C62.6106 33.3097 62.6728 33.6089 62.6728 33.875C62.6704 43.1527 62.6691 52.4304 62.6667 61.7081C62.6667 62.6511 62.6582 62.7271 61.7076 62.6352C60.2493 62.4941 59.0059 62.8387 57.9198 63.8479C57.4464 64.2881 56.8277 64.5689 56.3444 65.0006C55.4561 65.7952 54.4628 66.0024 53.2828 66C36.2001 65.9669 19.1175 65.9779 2.03359 65.9779C1.00611 65.9779 1.00733 65.9779 1.00733 64.965C1.00733 60.1018 1.01343 55.2373 1.00001 50.374C0.998791 49.8394 1.09885 49.5169 1.64798 49.2422C2.75355 48.6879 3.79567 48 4.84266 47.333C5.00496 47.2299 5.14041 46.9467 5.14163 46.7456C5.16115 43.9252 5.16116 41.1049 5.14529 38.2858C5.14407 38.0393 5.03547 37.7695 4.90978 37.5513C4.30818 36.509 3.67974 35.4814 3.0696 34.4452C2.68765 33.7977 2.81944 33.5758 3.58578 33.5672C4.07267 33.5574 4.55956 33.5623 5.15017 33.5623ZM24.2805 33.1442C24.2805 38.5641 24.2805 43.9498 24.2805 49.3268C25.4446 49.3268 26.4672 49.3268 27.5459 49.3268C27.5459 49.0325 27.5459 48.791 27.5459 48.5494C27.5459 44.7689 27.5557 40.9896 27.5374 37.2091C27.5349 36.6561 27.7021 36.4427 28.2695 36.4575C29.5093 36.4893 30.7504 36.466 31.9902 36.4673C32.8126 36.4685 32.8602 36.5139 32.8602 37.3256C32.8614 41.1061 32.8602 44.8854 32.859 48.6659C32.859 48.8854 32.859 49.1036 32.859 49.3428C33.9951 49.3428 35.0616 49.3428 36.2099 49.3428C36.2099 49.0656 36.2099 48.8265 36.2099 48.5874C36.2099 44.8069 36.2196 41.0276 36.2013 37.2471C36.1989 36.6635 36.3844 36.4403 36.975 36.4587C38.0513 36.4918 39.13 36.4673 40.2075 36.4673C41.1056 36.4673 41.1398 36.4991 41.1386 37.3882C41.1349 41.127 41.13 44.867 41.1252 48.6058C41.1252 48.8437 41.1252 49.0828 41.1252 49.344C42.4186 49.344 43.6279 49.344 44.9031 49.344C44.9031 49.0693 44.9031 48.8302 44.9031 48.5911C44.9031 44.8106 44.9129 41.0313 44.8946 37.2508C44.8922 36.6757 45.0605 36.4391 45.6597 36.4575C46.7567 36.4918 47.855 36.466 48.9532 36.4673C49.7977 36.4685 49.844 36.5126 49.844 37.3722C49.8428 41.1319 49.8392 44.8915 49.8355 48.6512C49.8355 48.8854 49.8355 49.1196 49.8355 49.3378C51.0143 49.3378 52.0845 49.3378 53.1998 49.3378C53.1998 49.0509 53.1998 48.8081 53.1998 48.5641C53.1998 44.8045 53.1998 41.0448 53.201 37.2852C53.201 36.493 53.2279 36.4685 54.0369 36.4673C55.2572 36.466 56.4775 36.466 57.6965 36.4673C58.4897 36.4685 58.5251 36.504 58.5251 37.2962C58.5251 41.0767 58.5251 44.856 58.5239 48.6364C58.5239 48.8707 58.5239 49.1049 58.5239 49.3501C58.7887 49.3636 58.951 49.3771 59.112 49.3795C60.0785 49.3918 60.0736 49.3906 60.0663 50.3802C60.0394 53.9767 60.015 57.572 59.9919 61.1686C59.9906 61.3832 60.0089 61.599 60.0187 61.7989C60.6716 61.7989 61.2487 61.7989 61.8174 61.7989C61.8174 52.2171 61.8174 42.688 61.8174 33.1429C49.2559 33.1442 36.7395 33.1442 24.2805 33.1442ZM8.05077 53.5353C8.05077 57.4212 8.05077 61.2704 8.05077 65.1441C8.61576 65.1441 9.14658 65.1441 9.72987 65.1441C9.72987 64.8461 9.72987 64.6045 9.72987 64.3629C9.72987 61.8295 9.74207 59.2949 9.72133 56.7615C9.71767 56.2342 9.87753 56.0356 10.4181 56.0466C11.841 56.0748 13.265 56.0552 14.6879 56.0589C15.4383 56.0601 15.4603 56.0822 15.4615 56.8669C15.464 59.3807 15.464 61.8933 15.464 64.4071C15.464 64.6462 15.464 64.8841 15.464 65.16C16.7538 65.16 17.9619 65.16 19.2493 65.16C19.2493 64.8816 19.2493 64.6425 19.2493 64.4034C19.2493 61.87 19.2602 59.3354 19.2395 56.802C19.2346 56.2563 19.3847 56.0331 19.9631 56.0466C21.386 56.0809 22.81 56.0809 24.2329 56.0466C24.8296 56.0319 25.0029 56.2502 24.9955 56.8302C24.9675 58.8731 24.9846 60.916 24.9833 62.9601C24.9833 63.6885 24.9833 64.4169 24.9833 65.1477C26.2939 65.1477 27.5008 65.1477 28.7674 65.1477C28.7674 64.8547 28.7674 64.6131 28.7674 64.3727C28.7674 61.859 28.7821 59.3464 28.7577 56.8326C28.7516 56.2587 28.9114 56.027 29.513 56.0454C30.7723 56.0822 32.0341 56.0564 33.2946 56.0589C34.0781 56.0601 34.1025 56.0858 34.1037 56.9025C34.1049 58.905 34.1037 60.9074 34.1037 62.9099C34.1037 63.6579 34.1037 64.4059 34.1037 65.1428C35.5583 65.1428 36.9054 65.1428 38.2856 65.1428C38.2856 64.8424 38.2856 64.5984 38.2856 64.3544C38.2856 61.8406 38.3002 59.328 38.2746 56.8142C38.2685 56.2195 38.4698 56.0294 39.0507 56.0454C40.31 56.0797 41.5718 56.0552 42.8323 56.0589C43.5889 56.0613 43.6231 56.0969 43.6255 56.8559C43.6304 59.4102 43.6328 61.9644 43.6377 64.5187C43.6377 64.7345 43.656 64.9503 43.6658 65.1563C45.0679 65.1563 46.4004 65.1563 47.805 65.1563C47.805 64.8743 47.805 64.6339 47.805 64.3936C47.805 61.8602 47.8172 59.3256 47.7952 56.7921C47.7903 56.2342 47.9697 56.0307 48.5335 56.0454C49.7928 56.0785 51.0546 56.0552 52.3151 56.0576C53.1315 56.0589 53.1473 56.0748 53.1485 56.8719C53.1498 58.9148 53.1498 60.9589 53.1498 63.0018C53.1498 63.7106 53.1498 64.4206 53.1498 65.1612C53.6049 65.1612 53.9783 65.1612 54.3883 65.1612C54.3883 61.274 54.3883 57.4249 54.3883 53.534C38.9287 53.5353 23.5092 53.5353 8.05077 53.5353ZM58.1444 50.309C58.1334 50.2673 58.1236 50.2244 58.1126 50.1827C57.9784 50.1729 57.843 50.1558 57.7087 50.1558C42.8226 50.157 27.9352 50.1582 13.049 50.1643C12.8721 50.1643 12.6561 50.157 12.5231 50.2489C11.4261 51.0068 10.3437 51.7866 9.2564 52.5604C9.26983 52.6033 9.28447 52.6475 9.29789 52.6904C9.73841 52.6904 10.1802 52.6904 10.6207 52.6904C25.1212 52.6904 39.6218 52.6904 54.1211 52.6855C54.3774 52.6855 54.6861 52.6941 54.8813 52.5653C55.9845 51.8369 57.0595 51.0656 58.1444 50.309ZM6.00681 46.504C6.13494 46.4415 6.22768 46.4059 6.31188 46.3556C8.9794 44.7529 11.6518 43.1576 14.3035 41.5292C14.5024 41.4065 14.6586 41.0473 14.6622 40.7959C14.6915 38.8351 14.6793 36.8744 14.6769 34.9136C14.6769 34.7383 14.6476 34.5617 14.6317 34.3888C11.714 34.3888 8.84151 34.3888 6.00681 34.3888C6.00681 38.4403 6.00681 42.4415 6.00681 46.504ZM1.83834 50.1852C1.83834 55.2226 1.83834 60.1901 1.83834 65.1624C3.65533 65.1624 5.41619 65.1624 7.18926 65.1624C7.18926 60.1557 7.18926 55.1858 7.18926 50.1852C5.38569 50.1852 3.62727 50.1852 1.83834 50.1852ZM14.6378 24.8168C11.7275 24.8168 8.85737 24.8168 6.00681 24.8168C6.00681 27.7475 6.00681 30.634 6.00681 33.5292C8.89032 33.5292 11.747 33.5292 14.6378 33.5292C14.6378 30.6095 14.6378 27.7254 14.6378 24.8168ZM8.05199 52.2698C8.26432 52.1447 8.42174 52.0638 8.56695 51.9645C9.5932 51.2655 10.6341 50.5862 11.6359 49.8529C12.1241 49.496 12.6195 49.3648 13.2162 49.3697C16.3682 49.3918 19.5189 49.3808 22.6709 49.3783C22.904 49.3783 23.1371 49.355 23.3591 49.3428C23.3591 46.3311 23.3591 43.3992 23.3591 40.3618C23.0675 40.5384 22.8466 40.6659 22.6306 40.8032C18.2669 43.5745 13.9044 46.3483 9.53951 49.1184C7.89458 50.1631 7.89214 50.1582 8.05199 52.2698ZM60.9083 32.2993C60.9242 32.2539 60.9388 32.2098 60.9547 32.1644C60.1664 31.5966 59.389 31.0117 58.5824 30.471C58.3481 30.314 58.0284 30.2073 57.7478 30.2073C48.0331 30.1938 38.3185 30.1963 28.6039 30.2012C28.4074 30.2012 28.1731 30.2085 28.023 30.3115C27.1274 30.9259 26.2512 31.5697 25.2359 32.2993C37.2422 32.2993 49.0753 32.2993 60.9083 32.2993ZM26.2646 4.44284C26.2646 8.36435 26.2646 12.2135 26.2646 16.0651C27.8058 16.0651 29.297 16.0651 30.7943 16.0651C30.7943 12.1669 30.7943 8.31775 30.7943 4.44284C29.2689 4.44284 27.7912 4.44284 26.2646 4.44284ZM56.9497 29.3575C55.9503 28.6377 55.101 28.0111 54.2322 27.4139C54.065 27.2987 53.8148 27.2594 53.6037 27.2594C46.6701 27.2521 39.7365 27.2521 32.8016 27.2558C32.6235 27.2558 32.4063 27.2447 32.2733 27.3367C31.3605 27.9633 30.466 28.6157 29.43 29.3575C38.6626 29.3575 47.7159 29.3575 56.9497 29.3575ZM14.6464 17.902C11.7006 18.4624 8.84029 18.6034 5.96654 17.7169C5.96654 19.7831 5.96654 21.853 5.96654 23.9596C8.87324 23.9596 11.7445 23.9596 14.6464 23.9596C14.6464 21.9094 14.6464 19.8971 14.6464 17.902ZM48.6079 26.4661C50.1833 26.4661 51.6561 26.4661 53.1595 26.4661C53.1595 22.9921 53.1595 19.5587 53.1595 16.1166C51.611 16.1166 50.104 16.1166 48.6079 16.1166C48.6079 19.5881 48.6079 23.0056 48.6079 26.4661ZM41.9647 23.5636C41.9647 20.0565 41.9647 16.6169 41.9647 13.1626C40.4235 13.1626 38.9311 13.1626 37.407 13.1626C37.407 16.6476 37.407 20.0909 37.407 23.5636C38.9274 23.5636 40.4223 23.5636 41.9647 23.5636ZM3.2319 49.2373C3.238 49.2827 3.24532 49.3268 3.25142 49.3722C4.62789 49.3722 6.00437 49.3783 7.38084 49.3636C7.52971 49.3624 7.69079 49.2692 7.8238 49.1846C12.9002 45.978 17.9753 42.7689 23.0468 39.5525C23.1859 39.4642 23.3628 39.2986 23.3701 39.1613C23.4043 38.5188 23.3848 37.8725 23.3848 37.0926C16.5952 41.1846 9.91291 45.2116 3.2319 49.2373ZM59.1523 50.6278C57.921 51.5009 56.8057 52.3127 55.6648 53.0877C55.3182 53.3231 55.2072 53.5843 55.2084 53.9926C55.223 57.3795 55.2169 60.7664 55.2194 64.1532C55.2194 64.3237 55.2462 64.4941 55.2694 64.7615C56.4409 63.9325 57.5208 63.1465 58.6276 62.3985C58.9888 62.1533 59.1218 61.8823 59.123 61.4469C59.1316 58.0392 59.1645 54.6327 59.1889 51.225C59.1889 51.0681 59.1694 50.9111 59.1523 50.6278ZM26.2732 19.4029C26.2732 23.1099 26.2732 26.742 26.2732 30.4734C27.7839 29.409 29.2177 28.4121 30.6283 27.3845C30.7674 27.284 30.8321 26.9995 30.8333 26.7996C30.8468 24.4931 30.8431 22.1877 30.8394 19.8812C30.8394 19.7254 30.8065 19.5697 30.787 19.4042C29.2641 19.4029 27.7863 19.4029 26.2732 19.4029ZM28.3293 41.8848C28.3293 44.3826 28.3293 46.8412 28.3293 49.3305C29.5911 49.3305 30.8138 49.3305 32.0426 49.3305C32.0426 46.8216 32.0426 44.363 32.0426 41.8848C30.7858 41.8848 29.5777 41.8848 28.3293 41.8848ZM57.7136 41.8848C56.4665 41.8848 55.2608 41.8848 54.0235 41.8848C54.0235 44.3961 54.0235 46.8682 54.0235 49.3415C55.2828 49.3415 56.4909 49.3415 57.7136 49.3415C57.7136 46.8388 57.7136 44.3789 57.7136 41.8848ZM33.6412 26.3667C33.6595 26.4133 33.6778 26.4599 33.6961 26.5065C33.8975 26.5065 34.1 26.5065 34.3014 26.5065C38.3075 26.5065 42.3125 26.5065 46.3187 26.5078C47.8184 26.5078 47.8037 26.5078 47.8123 24.9983C47.8147 24.5421 47.7195 24.3545 47.2119 24.3569C43.7756 24.3778 40.3393 24.3655 36.903 24.3704C36.7248 24.3704 36.5076 24.3618 36.3734 24.4526C35.4533 25.0755 34.5503 25.7254 33.6412 26.3667ZM40.332 49.3403C40.332 46.8265 40.332 44.3569 40.332 41.8455C39.3448 41.8455 38.4137 41.8664 37.4838 41.837C37.0372 41.8222 36.9433 42.005 36.9469 42.4108C36.964 44.0417 36.9543 45.6714 36.9543 47.3023C36.9543 47.9694 36.9543 48.6364 36.9543 49.3415C38.1074 49.3403 39.1947 49.3403 40.332 49.3403ZM48.9947 49.3477C48.9947 46.8277 48.9947 44.3569 48.9947 41.8897C47.8708 41.8897 46.8055 41.8897 45.7073 41.8897C45.7073 44.3924 45.7073 46.8523 45.7073 49.3477C46.8055 49.3477 47.8745 49.3477 48.9947 49.3477ZM10.7281 17.6457C11.7079 17.5145 12.8355 17.3858 13.9532 17.2018C14.2949 17.1454 14.5927 17.002 14.7062 16.5323C14.8904 15.7622 14.3913 15.4508 13.9081 15.208C11.6359 14.0651 9.33328 14.0725 7.05502 15.1982C6.56081 15.4422 6.0605 15.815 6.1508 16.4551C6.24598 17.1319 6.89395 17.2362 7.41745 17.3134C8.45956 17.4655 9.51388 17.5292 10.7281 17.6457ZM14.7306 63.0815C14.7306 61.0533 14.7354 59.0975 14.7171 57.1429C14.7159 57.03 14.517 56.8277 14.4035 56.8228C13.6799 56.7934 12.9538 56.8081 12.2095 56.8081C12.2095 58.9454 12.2095 61.0092 12.2095 63.0815C13.0539 63.0815 13.8422 63.0815 14.7306 63.0815ZM24.2463 63.0656C24.2463 61.0472 24.2499 59.073 24.2353 57.0987C24.2341 57.0031 24.0828 56.8289 23.9986 56.8265C23.2359 56.8056 22.4732 56.8142 21.7191 56.8142C21.7191 58.965 21.7191 61.0165 21.7191 63.0668C22.5721 63.0656 23.3762 63.0656 24.2463 63.0656ZM28.2939 37.2717C28.2939 38.4648 28.2854 39.6015 28.3074 40.737C28.3098 40.8584 28.4941 41.0767 28.5966 41.0779C29.7436 41.1024 30.8907 41.0939 32.0548 41.0939C32.0548 39.772 32.0548 38.5384 32.0548 37.2717C30.8089 37.2717 29.5984 37.2717 28.2939 37.2717ZM54.0101 41.0558C55.2901 41.0558 56.497 41.0558 57.7173 41.0558C57.7173 39.7757 57.7173 38.5396 57.7173 37.2704C56.4689 37.2704 55.2584 37.2704 54.0101 37.2704C54.0101 38.5371 54.0101 39.772 54.0101 41.0558ZM40.3515 37.2459C39.3143 37.2459 38.3027 37.2337 37.2923 37.2631C37.1763 37.2668 36.9738 37.5022 36.9701 37.6346C36.9433 38.6561 36.9433 39.6775 36.9701 40.699C36.9738 40.8339 37.1702 41.0755 37.2837 41.0779C38.2941 41.1073 39.3045 41.0951 40.3503 41.0951C40.3515 39.7855 40.3515 38.5506 40.3515 37.2459ZM50.2772 56.8461C50.2772 58.9491 50.2772 61.0104 50.2772 63.0693C50.9887 63.0693 51.65 63.0693 52.3322 63.0693C52.3322 60.9663 52.3322 58.9062 52.3322 56.8461C51.6171 56.8461 50.9581 56.8461 50.2772 56.8461ZM42.8482 56.8522C42.1355 56.8522 41.4607 56.8522 40.7579 56.8522C40.7579 58.9454 40.7579 61.0067 40.7579 63.0545C41.4839 63.0545 42.16 63.0545 42.8482 63.0545C42.8482 60.9822 42.8482 58.9699 42.8482 56.8522ZM31.2373 56.8437C31.2373 58.9614 31.2373 61.0141 31.2373 63.0717C31.9462 63.0717 32.6088 63.0717 33.3056 63.0717C33.3056 60.9822 33.3056 58.9319 33.3056 56.8437C32.6052 56.8437 31.945 56.8437 31.2373 56.8437ZM46.9654 15.2546C49.4633 15.2546 51.9295 15.2546 54.403 15.2546C54.403 14.6599 54.403 14.1056 54.403 13.5611C51.8965 13.5611 49.4474 13.5611 46.9654 13.5611C46.9654 14.1436 46.9654 14.6844 46.9654 15.2546ZM32.0622 1.92415C29.5301 1.92415 27.0724 1.92415 24.6148 1.92415C24.6148 2.51765 24.6148 3.05597 24.6148 3.58815C27.1249 3.58815 29.5838 3.58815 32.0622 3.58815C32.0622 3.01182 32.0622 2.48822 32.0622 1.92415ZM45.7158 37.2655C45.7158 38.5555 45.7158 39.7904 45.7158 41.0497C46.8385 41.0497 47.9197 41.0497 49.0142 41.0497C49.0142 39.7646 49.0142 38.5286 49.0142 37.2655C47.9038 37.2655 46.8324 37.2655 45.7158 37.2655ZM43.2314 12.3128C43.2314 11.7414 43.2314 11.2104 43.2314 10.6819C40.7078 10.6819 38.2416 10.6819 35.773 10.6819C35.773 11.2546 35.773 11.7745 35.773 12.3128C38.2795 12.3128 40.7469 12.3128 43.2314 12.3128ZM24.1694 63.8896C23.2823 63.8896 22.4708 63.859 21.663 63.8994C21.0662 63.9301 20.882 63.6995 20.8905 63.1183C20.9162 61.2618 20.9027 59.404 20.8991 57.5463C20.8991 57.3121 20.871 57.0779 20.8564 56.8412C20.5464 56.8412 20.3109 56.8412 20.1047 56.8412C20.0632 56.8902 20.0376 56.905 20.0376 56.9209C20.0229 59.572 20.0058 62.2232 20.0083 64.8743C20.0083 64.981 20.1828 65.1772 20.2779 65.1784C21.569 65.1992 22.8613 65.1919 24.1694 65.1919C24.1694 64.7296 24.1694 64.347 24.1694 63.8896ZM14.6427 63.8896C13.8007 63.8896 12.9929 63.8908 12.1838 63.8896C11.4334 63.8884 11.3833 63.8393 11.3821 63.0999C11.3809 61.3243 11.3821 59.5475 11.3821 57.7719C11.3821 57.4727 11.3821 57.1735 11.3821 56.8902C10.4755 56.7382 10.4742 56.7382 10.4742 57.5487C10.473 59.8553 10.4742 62.1618 10.4742 64.4696C10.4742 64.6879 10.4742 64.9062 10.4742 65.1502C11.919 65.1502 13.2833 65.1502 14.6427 65.1502C14.6427 64.7149 14.6427 64.3335 14.6427 63.8896ZM39.119 65.1575C40.3857 65.1575 41.573 65.1575 42.7823 65.1575C42.7823 64.7222 42.7823 64.3286 42.7823 63.8884C42.0501 63.8884 41.3619 63.8614 40.6773 63.897C40.1148 63.9264 39.9256 63.6995 39.9317 63.149C39.9512 61.252 39.9415 59.355 39.9378 57.458C39.9366 56.7492 39.8939 56.7223 39.1202 56.9013C39.119 59.637 39.119 62.3801 39.119 65.1575ZM52.3163 63.8896C51.6354 63.8896 51.0277 63.8908 50.4212 63.8896C49.4694 63.8884 49.4572 63.8761 49.456 62.9479C49.4548 61.1318 49.456 59.3157 49.4535 57.5009C49.4535 57.2851 49.4291 57.0693 49.4157 56.8571C49.118 56.8571 48.8886 56.8571 48.6421 56.8571C48.6421 59.6493 48.6421 62.3936 48.6421 65.1539C49.8867 65.1539 51.0899 65.1539 52.3163 65.1539C52.3163 64.7271 52.3163 64.3482 52.3163 63.8896ZM29.6106 65.1441C30.8638 65.1441 32.067 65.1441 33.2727 65.1441C33.2727 64.71 33.2727 64.3323 33.2727 63.8896C32.5307 63.8896 31.8242 63.8651 31.1201 63.897C30.5795 63.9215 30.4123 63.6946 30.4172 63.1759C30.4343 61.2998 30.4233 59.4224 30.4184 57.5451C30.4172 57.3108 30.3879 57.0766 30.3721 56.8424C30.0841 56.8424 29.8693 56.8424 29.6106 56.8424C29.6106 59.6199 29.6106 62.3642 29.6106 65.1441ZM26.2524 18.5617C27.7826 18.5617 29.275 18.5617 30.8004 18.5617C30.8004 17.9817 30.8004 17.4434 30.8004 16.872C29.2689 16.872 27.7778 16.872 26.2524 16.872C26.2524 17.4373 26.2524 17.9609 26.2524 18.5617ZM15.4884 27.1405C15.525 27.154 15.5616 27.1675 15.597 27.1797C16.0485 26.4133 16.5 25.6457 16.9844 24.8217C16.4182 24.8217 15.9533 24.8217 15.4871 24.8217C15.4884 25.6298 15.4884 26.3851 15.4884 27.1405ZM16.9991 34.3704C16.4292 34.3704 15.9765 34.3704 15.4957 34.3704C15.4957 35.1724 15.4957 35.9412 15.4957 36.7088C15.5311 36.7199 15.5652 36.7321 15.6006 36.7432C16.046 35.9866 16.4926 35.23 16.9991 34.3704ZM3.93112 34.3594C4.33137 35.0252 4.67304 35.593 5.0135 36.1607C5.05011 36.1423 5.0855 36.1251 5.12211 36.1067C5.12211 35.5316 5.12211 34.9578 5.12211 34.3606C4.74382 34.3594 4.4058 34.3594 3.93112 34.3594ZM5.116 26.7677C5.116 25.9976 5.116 25.4103 5.116 24.8217C4.72186 24.8217 4.38018 24.8217 3.95064 24.8217C4.34113 25.474 4.68525 26.0479 5.116 26.7677Z" fill="#EC2232" stroke="#EC2232" stroke-width="0.5"/>
</svg>
