<svg width="26" height="20" viewBox="0 0 26 20" fill="none" xmlns="http://www.w3.org/2000/svg">
<path d="M25.7143 0.0112081C24.595 0.764094 23.3557 1.33993 22.0442 1.71654C21.3402 0.944696 20.4047 0.39763 19.3641 0.149336C18.3235 -0.0989584 17.228 -0.0365016 16.2258 0.328259C15.2236 0.69302 14.3631 1.34249 13.7606 2.18882C13.1581 3.03515 12.8428 4.03751 12.8571 5.06034V6.17494C10.8031 6.22573 8.76772 5.79131 6.93235 4.91037C5.09697 4.02942 3.51855 2.72931 2.33766 1.12581C2.33766 1.12581 -2.33766 11.1572 8.18182 15.6156C5.77464 17.1738 2.90707 17.9551 0 17.8448C10.5195 23.4178 23.3766 17.8448 23.3766 5.0269C23.3755 4.71643 23.3442 4.40673 23.2831 4.10178C24.476 2.97993 25.3179 1.56352 25.7143 0.0112081Z" fill="white"/>
</svg>
