<svg width="74" height="74" viewBox="0 0 74 74" fill="none" xmlns="http://www.w3.org/2000/svg">
<mask id="path-1-inside-1_105_11223" fill="white">
<path d="M38.6766 0.000481756V1.00079H43.0919C44.5049 1.00079 45.6234 1.94327 45.9767 3.23847C51.9202 6.15732 55.891 11.9006 56.619 18.3501C61.5543 18.6781 65.5276 21.104 67.8772 25.256L68.0538 25.6093C69.7023 26.9632 70.762 29.0238 70.762 31.261V31.968C72.116 32.0857 73.2341 33.2626 73.2341 34.6756V38.0896C73.2341 39.5026 72.1749 40.6811 70.762 40.7988V49.8058C70.762 53.0437 69.6439 56.0457 67.7011 58.4006L70.7032 59.8725C72.7048 60.8144 74 62.8754 74 65.1126V73.5902H59.7536V73.473H3.17566V65.0538C3.17566 62.8166 4.47189 60.815 6.47358 59.8141L15.6571 55.3398V55.1043C12.5958 52.926 10.4174 49.3936 9.18117 46.8032L6.94402 47.2148C6.70853 47.2737 6.47305 47.2747 6.29642 47.2747C4.41251 47.2747 2.82304 45.9202 2.46967 44.0951L1.05673 36.1474C0.703499 34.028 1.99815 32.0848 4.05874 31.6138C4.52393 23.4169 10.7318 16.6017 18.9363 15.4687C20.3729 10.2269 23.9904 5.76678 29.0207 3.29683C29.3739 2.00164 30.4926 1.06023 31.9055 1.06023H36.3209V0L38.6766 0.000481756ZM43.0919 3.35573H38.6766V16.8957H36.3217V3.35573H31.9063C31.5531 3.35573 31.2587 3.65114 31.2587 4.00437V13.0114H28.9038V5.94669C23.782 8.94911 20.6033 14.4836 20.6033 20.4891V22.608L18.0714 23.3145V24.8446H56.927V23.3727L54.3951 22.6668V20.5474C54.3951 14.5424 51.1576 9.0079 46.0945 6.00494V13.0696H43.7397V4.00436C43.7397 3.65113 43.4453 3.35572 43.0921 3.35572L43.0919 3.35573ZM18.4261 17.9614C11.9692 19.224 7.08323 24.6308 6.41457 31.2029L6.94495 31.0857C8.25434 24.2529 12.3786 19.798 18.3467 18.7131C18.3703 18.4624 18.3924 18.2101 18.426 17.9614L18.4261 17.9614ZM50.1566 20.6059V22.9608H24.8422V20.6059H50.1566ZM56.7498 20.7173V20.8414L59.2817 21.6062V23.9027H63.4028C63.5794 23.9027 63.8149 23.9022 63.9915 23.961C62.1371 22.0556 59.697 20.9617 56.7498 20.7174V20.7173ZM15.7168 22.0767C12.1602 23.8597 9.84531 27.4745 9.12364 32.6159L9.71236 35.8538H9.82958C12.8432 36.3342 15.5638 35.6787 18.0659 34.6606C17.5093 34.3378 17.0283 33.9089 16.6588 33.3806C15.6579 31.9677 15.4818 30.0843 16.1883 28.5536C16.4238 28.0238 16.7765 27.6122 17.1297 27.259H15.7168L15.7168 22.0767ZM63.404 26.2577H59.2829V27.259H57.87C58.2821 27.6122 58.576 28.0827 58.8114 28.5537C59.5179 30.0844 59.3418 31.9677 58.341 33.3807C57.695 34.2858 56.7946 34.873 55.7585 35.1468H65.2291V43.5072H50.5857C48.5683 46.6668 46.4842 48.7401 44.565 50.1009V51.0424L46.7428 52.1026L56.4568 56.8124C58.0863 57.6071 59.3384 58.9938 59.9812 60.6438C64.9123 59.3344 68.4083 54.9217 68.4083 49.7477V31.2611C68.4083 28.4942 66.1712 26.2569 63.4041 26.2569L63.404 26.2577ZM53.8074 27.259H21.1928C21.2517 29.1429 21.6627 31.9688 22.3103 33.735C27.6088 48.5116 34.674 50.1008 37.5 50.1008C40.267 50.1596 47.3312 48.5701 52.6292 33.7928C53.159 31.85 53.6889 29.7901 53.8066 27.2585L53.8074 27.259ZM56.045 28.8481C55.9273 30.32 55.6335 31.6156 55.3391 32.8519C55.8689 32.6753 56.2211 32.3216 56.4566 32.0272C56.9865 31.3207 57.0459 30.3204 56.6926 29.6139C56.516 29.3196 56.3394 29.0247 56.045 28.8481V28.8481ZM18.9562 28.8481C18.6618 29.0247 18.4263 29.2607 18.3086 29.614C17.9554 30.3204 18.0148 31.3208 18.5446 32.0272C18.7801 32.3216 19.0739 32.6754 19.6038 32.852C19.3094 31.5568 19.0739 30.1433 18.9562 28.8481V28.8481ZM6.8285 33.4989L4.59135 33.911C3.76714 34.0877 3.23736 34.853 3.35503 35.6772L4.76797 43.6249C4.88571 44.4491 5.70992 44.9785 6.53413 44.8607L8.77074 44.4491L6.8285 33.4989ZM70.7631 34.382V38.3264C70.822 38.2086 70.8803 38.1498 70.8803 38.032V34.618C70.8803 34.5002 70.822 34.4408 70.7631 34.382V34.382ZM20.7224 36.0831C18.1582 37.3136 15.1826 38.3848 11.8316 38.3848C11.3018 38.3848 10.7131 38.3264 10.1832 38.2676L11.5961 46.2153C15.4229 53.8098 19.7211 54.6929 21.4872 54.6929C22.0728 54.6929 22.8549 54.5961 23.7616 54.2713L25.3943 53.4765C26.6653 52.6933 28.0715 51.4244 29.4922 49.4028C26.5607 47.0852 23.4294 43.022 20.7224 36.083V36.0831ZM62.8735 37.5018H53.6989C53.1343 38.8322 52.554 40.0469 51.9611 41.1524H62.8735V37.5018ZM42.2689 51.2786C40.3261 52.1616 38.6777 52.3383 37.5591 52.3383C36.4406 52.3383 34.7922 52.1616 32.8494 51.2786V51.8084C32.7905 51.8673 32.7905 51.8667 32.7905 51.9256C32.7905 52.1022 32.8494 52.3388 32.8494 52.5743C32.8494 52.692 32.9077 52.8681 32.9077 52.9858C32.9666 53.1036 32.9671 53.2213 33.026 53.3391C33.026 53.3391 33.026 53.3974 33.0849 53.3974C33.1437 53.5152 33.1432 53.574 33.2021 53.6918C33.2021 53.7507 33.2615 53.8101 33.3203 53.8689C33.3203 53.9278 33.3792 53.9872 33.4381 54.0461L33.6147 54.3988C34.1446 55.1641 34.851 55.7533 35.6752 56.1066H35.734C35.8518 56.1654 35.9695 56.2238 36.0873 56.2238H36.1456C36.2634 56.2826 36.3822 56.2826 36.4999 56.2826H36.6171C36.7349 56.2826 36.8526 56.341 36.9703 56.341H37.5591C40.1494 56.341 42.2689 54.2216 42.2689 51.6312L42.2689 51.2786ZM44.3294 53.5745C44.3294 53.6334 44.2705 53.6928 44.2705 53.7516C44.2705 53.8105 44.2116 53.9272 44.2116 53.9861C44.1528 54.1038 44.0939 54.281 44.035 54.3987C44.035 54.4576 43.9762 54.5159 43.9762 54.5748C43.9173 54.7514 43.7995 54.9286 43.7407 55.0463C43.7407 55.0463 43.7407 55.1052 43.6818 55.1052L43.3286 55.635C43.2697 55.6939 43.2692 55.7533 43.2103 55.8122C43.1514 55.9299 43.0337 56.0471 42.9159 56.1649L42.7398 56.341C42.681 56.4587 42.5632 56.5176 42.4455 56.6353L42.2689 56.8125L41.9745 57.1068L41.7984 57.284C41.6807 57.4017 41.5619 57.4606 41.4441 57.5783C41.3853 57.6372 41.3269 57.6367 41.3269 57.6956L40.7971 58.0488C40.7382 58.0488 40.7382 58.1071 40.6793 58.1071C40.5027 58.166 40.3849 58.2843 40.2083 58.3432C40.1495 58.402 40.0901 58.4015 39.9723 58.4015C39.8546 58.4604 39.7374 58.5198 39.5607 58.5198C39.5019 58.5198 39.3841 58.5786 39.3252 58.5786C39.2075 58.6375 39.0309 58.637 38.9131 58.6959C38.8543 58.6959 38.7365 58.7558 38.6777 58.7558C38.5599 58.7558 38.3828 58.8141 38.2061 58.8141H37.9717C37.7362 58.8141 37.4997 58.873 37.3231 58.873H36.676C36.5583 58.873 36.4405 58.873 36.3816 58.8141C36.2639 58.8141 36.205 58.8147 36.0873 58.7558C35.9695 58.7558 35.7929 58.6964 35.6752 58.6375C35.6163 58.6375 35.5574 58.6375 35.4986 58.5786C35.3219 58.5198 35.2047 58.4614 35.0281 58.4614H34.9098C34.7332 58.4026 34.5571 58.3432 34.4394 58.2843H34.3795C34.2028 58.2254 34.0267 58.1077 33.909 58.0488C33.7324 57.9311 33.6146 57.8722 33.438 57.7544C33.2614 57.6367 33.1437 57.5778 33.0259 57.4601C33.0259 57.4601 32.9676 57.4601 32.9676 57.4012C32.8498 57.2835 32.731 57.1657 32.6133 57.1068L32.5549 57.048L32.2606 56.7536C32.2017 56.6947 32.1428 56.6359 32.1428 56.577C32.084 56.5181 32.0251 56.3998 31.9073 56.341C31.8485 56.2232 31.7307 56.1644 31.6719 56.0466C31.613 55.9877 31.613 55.9294 31.5541 55.9294C31.0831 55.2818 30.7294 54.5159 30.5528 53.6917L19.4853 59.0501C17.8369 59.8154 16.836 61.5222 16.836 63.2884V71.1188H22.1933V69.4699H24.5482V71.1188H50.452V69.4699H52.8069V71.1188H58.1054V63.1712C58.1054 61.3462 57.0457 59.6972 55.4561 58.9318L44.3294 53.5745ZM17.8362 56.341C17.6007 56.8709 17.1881 57.283 16.7171 57.5185L7.53357 61.9338C6.35612 62.5226 5.59125 63.7005 5.59125 65.0545V71.1188H9.12359V70.1175H11.4785V71.1188H14.5393V63.1712C14.5393 60.463 16.1293 57.9899 18.5431 56.8124L18.8307 56.6721C18.4895 56.5743 18.1552 56.465 17.8362 56.3409L17.8362 56.341ZM65.9352 60.1678C64.3609 61.4798 62.5038 62.4612 60.4516 62.9517C60.4537 63.0247 60.4595 63.0978 60.4595 63.1714V71.2364H65.6408V70.1179H67.9957V71.2364H71.6453V65.1137C71.6453 63.8185 70.8794 62.5827 69.702 61.994L65.9352 60.1678Z"/>
</mask>
<path d="M38.6766 0.000481756V1.00079H43.0919C44.5049 1.00079 45.6234 1.94327 45.9767 3.23847C51.9202 6.15732 55.891 11.9006 56.619 18.3501C61.5543 18.6781 65.5276 21.104 67.8772 25.256L68.0538 25.6093C69.7023 26.9632 70.762 29.0238 70.762 31.261V31.968C72.116 32.0857 73.2341 33.2626 73.2341 34.6756V38.0896C73.2341 39.5026 72.1749 40.6811 70.762 40.7988V49.8058C70.762 53.0437 69.6439 56.0457 67.7011 58.4006L70.7032 59.8725C72.7048 60.8144 74 62.8754 74 65.1126V73.5902H59.7536V73.473H3.17566V65.0538C3.17566 62.8166 4.47189 60.815 6.47358 59.8141L15.6571 55.3398V55.1043C12.5958 52.926 10.4174 49.3936 9.18117 46.8032L6.94402 47.2148C6.70853 47.2737 6.47305 47.2747 6.29642 47.2747C4.41251 47.2747 2.82304 45.9202 2.46967 44.0951L1.05673 36.1474C0.703499 34.028 1.99815 32.0848 4.05874 31.6138C4.52393 23.4169 10.7318 16.6017 18.9363 15.4687C20.3729 10.2269 23.9904 5.76678 29.0207 3.29683C29.3739 2.00164 30.4926 1.06023 31.9055 1.06023H36.3209V0L38.6766 0.000481756ZM43.0919 3.35573H38.6766V16.8957H36.3217V3.35573H31.9063C31.5531 3.35573 31.2587 3.65114 31.2587 4.00437V13.0114H28.9038V5.94669C23.782 8.94911 20.6033 14.4836 20.6033 20.4891V22.608L18.0714 23.3145V24.8446H56.927V23.3727L54.3951 22.6668V20.5474C54.3951 14.5424 51.1576 9.0079 46.0945 6.00494V13.0696H43.7397V4.00436C43.7397 3.65113 43.4453 3.35572 43.0921 3.35572L43.0919 3.35573ZM18.4261 17.9614C11.9692 19.224 7.08323 24.6308 6.41457 31.2029L6.94495 31.0857C8.25434 24.2529 12.3786 19.798 18.3467 18.7131C18.3703 18.4624 18.3924 18.2101 18.426 17.9614L18.4261 17.9614ZM50.1566 20.6059V22.9608H24.8422V20.6059H50.1566ZM56.7498 20.7173V20.8414L59.2817 21.6062V23.9027H63.4028C63.5794 23.9027 63.8149 23.9022 63.9915 23.961C62.1371 22.0556 59.697 20.9617 56.7498 20.7174V20.7173ZM15.7168 22.0767C12.1602 23.8597 9.84531 27.4745 9.12364 32.6159L9.71236 35.8538H9.82958C12.8432 36.3342 15.5638 35.6787 18.0659 34.6606C17.5093 34.3378 17.0283 33.9089 16.6588 33.3806C15.6579 31.9677 15.4818 30.0843 16.1883 28.5536C16.4238 28.0238 16.7765 27.6122 17.1297 27.259H15.7168L15.7168 22.0767ZM63.404 26.2577H59.2829V27.259H57.87C58.2821 27.6122 58.576 28.0827 58.8114 28.5537C59.5179 30.0844 59.3418 31.9677 58.341 33.3807C57.695 34.2858 56.7946 34.873 55.7585 35.1468H65.2291V43.5072H50.5857C48.5683 46.6668 46.4842 48.7401 44.565 50.1009V51.0424L46.7428 52.1026L56.4568 56.8124C58.0863 57.6071 59.3384 58.9938 59.9812 60.6438C64.9123 59.3344 68.4083 54.9217 68.4083 49.7477V31.2611C68.4083 28.4942 66.1712 26.2569 63.4041 26.2569L63.404 26.2577ZM53.8074 27.259H21.1928C21.2517 29.1429 21.6627 31.9688 22.3103 33.735C27.6088 48.5116 34.674 50.1008 37.5 50.1008C40.267 50.1596 47.3312 48.5701 52.6292 33.7928C53.159 31.85 53.6889 29.7901 53.8066 27.2585L53.8074 27.259ZM56.045 28.8481C55.9273 30.32 55.6335 31.6156 55.3391 32.8519C55.8689 32.6753 56.2211 32.3216 56.4566 32.0272C56.9865 31.3207 57.0459 30.3204 56.6926 29.6139C56.516 29.3196 56.3394 29.0247 56.045 28.8481V28.8481ZM18.9562 28.8481C18.6618 29.0247 18.4263 29.2607 18.3086 29.614C17.9554 30.3204 18.0148 31.3208 18.5446 32.0272C18.7801 32.3216 19.0739 32.6754 19.6038 32.852C19.3094 31.5568 19.0739 30.1433 18.9562 28.8481V28.8481ZM6.8285 33.4989L4.59135 33.911C3.76714 34.0877 3.23736 34.853 3.35503 35.6772L4.76797 43.6249C4.88571 44.4491 5.70992 44.9785 6.53413 44.8607L8.77074 44.4491L6.8285 33.4989ZM70.7631 34.382V38.3264C70.822 38.2086 70.8803 38.1498 70.8803 38.032V34.618C70.8803 34.5002 70.822 34.4408 70.7631 34.382V34.382ZM20.7224 36.0831C18.1582 37.3136 15.1826 38.3848 11.8316 38.3848C11.3018 38.3848 10.7131 38.3264 10.1832 38.2676L11.5961 46.2153C15.4229 53.8098 19.7211 54.6929 21.4872 54.6929C22.0728 54.6929 22.8549 54.5961 23.7616 54.2713L25.3943 53.4765C26.6653 52.6933 28.0715 51.4244 29.4922 49.4028C26.5607 47.0852 23.4294 43.022 20.7224 36.083V36.0831ZM62.8735 37.5018H53.6989C53.1343 38.8322 52.554 40.0469 51.9611 41.1524H62.8735V37.5018ZM42.2689 51.2786C40.3261 52.1616 38.6777 52.3383 37.5591 52.3383C36.4406 52.3383 34.7922 52.1616 32.8494 51.2786V51.8084C32.7905 51.8673 32.7905 51.8667 32.7905 51.9256C32.7905 52.1022 32.8494 52.3388 32.8494 52.5743C32.8494 52.692 32.9077 52.8681 32.9077 52.9858C32.9666 53.1036 32.9671 53.2213 33.026 53.3391C33.026 53.3391 33.026 53.3974 33.0849 53.3974C33.1437 53.5152 33.1432 53.574 33.2021 53.6918C33.2021 53.7507 33.2615 53.8101 33.3203 53.8689C33.3203 53.9278 33.3792 53.9872 33.4381 54.0461L33.6147 54.3988C34.1446 55.1641 34.851 55.7533 35.6752 56.1066H35.734C35.8518 56.1654 35.9695 56.2238 36.0873 56.2238H36.1456C36.2634 56.2826 36.3822 56.2826 36.4999 56.2826H36.6171C36.7349 56.2826 36.8526 56.341 36.9703 56.341H37.5591C40.1494 56.341 42.2689 54.2216 42.2689 51.6312L42.2689 51.2786ZM44.3294 53.5745C44.3294 53.6334 44.2705 53.6928 44.2705 53.7516C44.2705 53.8105 44.2116 53.9272 44.2116 53.9861C44.1528 54.1038 44.0939 54.281 44.035 54.3987C44.035 54.4576 43.9762 54.5159 43.9762 54.5748C43.9173 54.7514 43.7995 54.9286 43.7407 55.0463C43.7407 55.0463 43.7407 55.1052 43.6818 55.1052L43.3286 55.635C43.2697 55.6939 43.2692 55.7533 43.2103 55.8122C43.1514 55.9299 43.0337 56.0471 42.9159 56.1649L42.7398 56.341C42.681 56.4587 42.5632 56.5176 42.4455 56.6353L42.2689 56.8125L41.9745 57.1068L41.7984 57.284C41.6807 57.4017 41.5619 57.4606 41.4441 57.5783C41.3853 57.6372 41.3269 57.6367 41.3269 57.6956L40.7971 58.0488C40.7382 58.0488 40.7382 58.1071 40.6793 58.1071C40.5027 58.166 40.3849 58.2843 40.2083 58.3432C40.1495 58.402 40.0901 58.4015 39.9723 58.4015C39.8546 58.4604 39.7374 58.5198 39.5607 58.5198C39.5019 58.5198 39.3841 58.5786 39.3252 58.5786C39.2075 58.6375 39.0309 58.637 38.9131 58.6959C38.8543 58.6959 38.7365 58.7558 38.6777 58.7558C38.5599 58.7558 38.3828 58.8141 38.2061 58.8141H37.9717C37.7362 58.8141 37.4997 58.873 37.3231 58.873H36.676C36.5583 58.873 36.4405 58.873 36.3816 58.8141C36.2639 58.8141 36.205 58.8147 36.0873 58.7558C35.9695 58.7558 35.7929 58.6964 35.6752 58.6375C35.6163 58.6375 35.5574 58.6375 35.4986 58.5786C35.3219 58.5198 35.2047 58.4614 35.0281 58.4614H34.9098C34.7332 58.4026 34.5571 58.3432 34.4394 58.2843H34.3795C34.2028 58.2254 34.0267 58.1077 33.909 58.0488C33.7324 57.9311 33.6146 57.8722 33.438 57.7544C33.2614 57.6367 33.1437 57.5778 33.0259 57.4601C33.0259 57.4601 32.9676 57.4601 32.9676 57.4012C32.8498 57.2835 32.731 57.1657 32.6133 57.1068L32.5549 57.048L32.2606 56.7536C32.2017 56.6947 32.1428 56.6359 32.1428 56.577C32.084 56.5181 32.0251 56.3998 31.9073 56.341C31.8485 56.2232 31.7307 56.1644 31.6719 56.0466C31.613 55.9877 31.613 55.9294 31.5541 55.9294C31.0831 55.2818 30.7294 54.5159 30.5528 53.6917L19.4853 59.0501C17.8369 59.8154 16.836 61.5222 16.836 63.2884V71.1188H22.1933V69.4699H24.5482V71.1188H50.452V69.4699H52.8069V71.1188H58.1054V63.1712C58.1054 61.3462 57.0457 59.6972 55.4561 58.9318L44.3294 53.5745ZM17.8362 56.341C17.6007 56.8709 17.1881 57.283 16.7171 57.5185L7.53357 61.9338C6.35612 62.5226 5.59125 63.7005 5.59125 65.0545V71.1188H9.12359V70.1175H11.4785V71.1188H14.5393V63.1712C14.5393 60.463 16.1293 57.9899 18.5431 56.8124L18.8307 56.6721C18.4895 56.5743 18.1552 56.465 17.8362 56.3409L17.8362 56.341ZM65.9352 60.1678C64.3609 61.4798 62.5038 62.4612 60.4516 62.9517C60.4537 63.0247 60.4595 63.0978 60.4595 63.1714V71.2364H65.6408V70.1179H67.9957V71.2364H71.6453V65.1137C71.6453 63.8185 70.8794 62.5827 69.702 61.994L65.9352 60.1678Z" fill="white" stroke="#094367" mask="url(#path-1-inside-1_105_11223)"/>
</svg>
